<?xml version="1.0" encoding="UTF-8"?>
<svg width="24px" height="24px" viewBox="0 0 24 24" version="1.1" xmlns="http://www.w3.org/2000/svg" xmlns:xlink="http://www.w3.org/1999/xlink">
    <title>icon-instagram</title>
    <g id="Page-1" stroke="none" stroke-width="1" fill="none" fill-rule="evenodd">
        <g id="Group-2" transform="translate(-22.000000, 0.000000)" fill="#166385">
            <path d="M40.8420103,7.40837224 L40.8420103,7.40366433 C41.3080937,7.40178116 41.7741771,7.41684648 42.2402605,7.39801483 C42.8541724,7.37353368 43.2675272,6.95170466 43.2760014,6.3415591 C43.2891836,5.4790694 43.288242,4.6165797 43.276943,3.75409 C43.2694103,3.14959394 42.8739456,2.7070501 42.2732159,2.6853937 C41.3542312,2.65432147 40.4324218,2.64302248 39.5153203,2.67409471 C38.7733532,2.69857586 38.4070776,3.13452862 38.406136,3.8840284 C38.406136,4.65706775 38.4051944,5.42916552 38.4070776,6.20314646 C38.4080191,6.99125113 38.8223155,7.40366433 39.6151281,7.40743066 C40.0247165,7.40931382 40.4324218,7.40837224 40.8420103,7.40837224 L40.8420103,7.40837224 Z M34.1096944,16.6264663 C34.2396328,16.6161089 34.4703205,16.611401 34.6991251,16.5812704 C35.9956844,16.4108439 37.0370748,15.7893993 37.8581349,14.7800228 C38.6801365,13.768763 38.9503707,12.60685 38.8025423,11.3347719 C38.6820197,10.299031 38.2159363,9.42995017 37.4815018,8.70022363 C36.8760642,8.09855232 36.1727019,7.65318373 35.3412845,7.45262662 C33.8404017,7.09011731 32.4242614,7.26807643 31.1540665,8.20495116 C30.2539135,8.86876692 29.6013967,9.71336655 29.3462278,10.8244341 C28.9827769,12.4006434 29.3000902,13.8101926 30.397034,15.0210679 C31.364981,16.087881 32.5730315,16.6170505 34.1096944,16.6264663 L34.1096944,16.6264663 Z M41.1847464,10.1653262 C41.1951038,10.2208796 41.1979285,10.265134 41.2111107,10.3065636 C41.465338,11.1699949 41.5237161,12.0494331 41.4389737,12.9420534 C41.2920868,14.5060222 40.6518106,15.8524854 39.6094786,17.0059241 C38.7658206,17.9427989 37.7281965,18.605673 36.5352113,19.0162031 C34.9627683,19.5576131 33.3724352,19.562321 31.7839852,19.1197772 C30.8913649,18.8702578 30.0806622,18.4333634 29.3594099,17.847699 C28.0637922,16.7978344 27.1288007,15.5088077 26.7559339,13.854447 C26.5327788,12.8629605 26.5045314,11.8677076 26.7013221,10.8705716 C26.7474597,10.6398839 26.8058378,10.4110793 26.8623328,10.1662678 L24.6627957,10.1662678 L24.6627957,10.413904 L24.6627957,13.8450312 C24.6627957,15.9212209 24.6618541,17.9974106 24.6637373,20.074542 C24.6637373,20.3494841 24.677861,20.6253678 24.8577033,20.8579387 C25.0902742,21.1592452 25.406646,21.2411629 25.7719801,21.2411629 C31.2416336,21.2383381 36.7094041,21.2392797 42.1790576,21.2383381 C42.2995802,21.2383381 42.4238691,21.2373965 42.5406254,21.209149 C42.9539801,21.1112244 43.2891836,20.7628389 43.2873083,20.148927 C43.2760014,16.88446 43.2816509,13.6209345 43.2816509,10.3555259 C43.2816509,10.2933815 43.2750598,10.2321786 43.2712935,10.1653262 L41.1847464,10.1653262 Z M22,21.2778846 L22,2.68351053 C22.0150653,2.63737298 22.0348386,2.59123543 22.045196,2.54321472 C22.2900075,1.37847699 22.9754796,0.590372317 24.0837224,0.169484876 C24.2767468,0.095099847 24.483895,0.055553376 24.6835105,0 L43.2778846,0 C43.3390874,0.0150653223 43.4002903,0.0329553925 43.4614932,0.0470791322 C44.6158735,0.289065872 45.4011534,0.967005375 45.8220409,2.06394915 C45.8983091,2.26356467 45.9416219,2.47730394 46.0009416,2.68351053 L46.0009416,21.2778846 C45.9858763,21.3324964 45.9689278,21.3871082 45.9576288,21.44172 C45.7137589,22.6290557 45.0113382,23.4228098 43.8833222,23.8446389 C43.7006552,23.9124328 43.5057476,23.9491545 43.3164895,24 L24.6835105,24 C24.6364314,23.9839931 24.5902939,23.9651614 24.5422731,23.954804 C23.5507866,23.760838 22.814469,23.2090706 22.3512103,22.3220997 C22.1845502,22.0000785 22.1139315,21.6281533 22,21.2778846 L22,21.2778846 Z" id="icon-instagram"></path>
        </g>
    </g>
</svg>