<?xml version="1.0" encoding="UTF-8"?>
<svg width="18px" height="24px" viewBox="0 0 18 24" version="1.1" xmlns="http://www.w3.org/2000/svg" xmlns:xlink="http://www.w3.org/1999/xlink">
    <title>icon-twitter</title>
    <g id="Page-1" stroke="none" stroke-width="1" fill="none" fill-rule="evenodd">
        <g id="Group-2" transform="translate(-92.000000, 0.000000)" fill="#166385">
            <path d="M106.228553,24 L99.6160595,24 L99.4767569,23.9902586 C94.9810796,23.582092 91.971947,20.2018103 92.0001972,15.6038479 L92.0001972,2.97211511 C92.0001972,1.32873321 93.3279563,0 94.9713382,0 C96.6156942,0 97.9444274,1.32873321 97.9444274,2.97211511 L97.9444274,7.35576572 L106.5734,7.43954215 C108.216782,7.45902504 109.535774,8.79652555 109.517265,10.4399075 C109.497782,12.0745221 108.170023,13.3847465 106.544176,13.3847465 L106.5169,13.3847465 L97.9444274,13.3009701 L97.9444274,15.6135893 C97.934686,17.7216382 99.2536778,17.9905021 99.8946649,18.0557698 L106.228553,18.0557698 C107.872909,18.0557698 109.201642,19.384503 109.201642,21.0278849 C109.201642,22.6722409 107.872909,24 106.228553,24" id="icon-twitter"></path>
        </g>
    </g>
</svg>