<?xml version="1.0" encoding="UTF-8"?>
<svg width="18px" height="24px" viewBox="0 0 18 24" version="1.1" xmlns="http://www.w3.org/2000/svg" xmlns:xlink="http://www.w3.org/1999/xlink">
    <title>icon-twitter-w</title>
    <g id="Page-1" stroke="none" stroke-width="1" fill="none" fill-rule="evenodd">
        <g id="Group-2" transform="translate(-104.000000, -12.000000)" fill="#FFFFFF">
            <path d="M118.228553,36 L111.61606,36 L111.476757,35.9902586 C106.98108,35.582092 103.971947,32.2018103 104.000197,27.6038479 L104.000197,14.9721151 C104.000197,13.3287332 105.327956,12 106.971338,12 C108.615694,12 109.944427,13.3287332 109.944427,14.9721151 L109.944427,19.3557657 L118.5734,19.4395422 C120.216782,19.459025 121.535774,20.7965256 121.517265,22.4399075 C121.497782,24.0745221 120.170023,25.3847465 118.544176,25.3847465 L118.5169,25.3847465 L109.944427,25.3009701 L109.944427,27.6135893 C109.934686,29.7216382 111.253678,29.9905021 111.894665,30.0557698 L118.228553,30.0557698 C119.872909,30.0557698 121.201642,31.384503 121.201642,33.0278849 C121.201642,34.6722409 119.872909,36 118.228553,36" id="icon-twitter-w"></path>
        </g>
    </g>
</svg>