<?xml version="1.0" encoding="UTF-8"?>
<svg width="24px" height="24px" viewBox="0 0 24 24" version="1.1" xmlns="http://www.w3.org/2000/svg" xmlns:xlink="http://www.w3.org/1999/xlink">
    <title>icon-linkedin</title>
    <g id="Page-1" stroke="none" stroke-width="1" fill="none" fill-rule="evenodd">
        <g id="Group-2" transform="translate(-57.000000, 0.000000)" fill="#166385">
            <path d="M77.2200899,20.0898822 L73.6180007,20.0898822 L73.6180007,14.2917527 C73.6180007,12.8351755 73.0981416,11.8411272 71.7921778,11.8411272 C70.7991012,11.8411272 70.2053929,12.5145148 69.9449775,13.1597231 C69.8487793,13.3919592 69.8254585,13.7135916 69.8254585,14.0381392 L69.8254585,20.0908539 L66.2243411,20.0908539 C66.2243411,20.0908539 66.2709826,10.2708612 66.2243411,9.25543544 L69.8254585,9.25543544 L69.8254585,10.7897486 C70.3045063,10.0502854 71.161545,9.00085024 73.070934,9.00085024 C75.4409085,9.00085024 77.2191182,10.5487672 77.2200899,13.8778088 L77.2200899,20.0898822 Z M62.4279121,7.77553747 L62.4045913,7.77553747 C61.1948257,7.77553747 60.4135795,6.94181951 60.4135795,5.9021013 C60.4135795,4.84003401 61.2210616,4.02866513 62.4531762,4.02866513 C63.6843192,4.02866513 64.4432163,4.84003401 64.4665371,5.9021013 C64.4665371,6.94181951 63.6833475,7.77553747 62.4279121,7.77553747 L62.4279121,7.77553747 Z M60.628325,20.0908539 L64.2313859,20.0908539 L64.2313859,9.25543544 L60.628325,9.25543544 L60.628325,20.0908539 Z M80.8493866,22.2800923 L80.8493866,1.72087939 C80.8493866,0.771529212 80.0603668,0 79.0867242,0 L58.7626625,0 C57.7880481,0 57,0.770557512 57,1.72087939 L57,22.2800923 C57,23.2304142 57.7880481,24 58.7626625,24 L79.0876959,24 C80.0613385,24 80.8503583,23.2313859 80.8503583,22.2800923 L80.8493866,22.2800923 Z" id="icon-linkedin"></path>
        </g>
    </g>
</svg>