<?xml version="1.0" encoding="UTF-8"?>
<svg width="24px" height="24px" viewBox="0 0 24 24" version="1.1" xmlns="http://www.w3.org/2000/svg" xmlns:xlink="http://www.w3.org/1999/xlink">
    <title>icon-linkedin-w</title>
    <g id="Page-1" stroke="none" stroke-width="1" fill="none" fill-rule="evenodd">
        <g id="Group-2" transform="translate(-69.000000, -12.000000)" fill="#FFFFFF">
            <path d="M89.2200899,32.0898822 L85.6180007,32.0898822 L85.6180007,26.2917527 C85.6180007,24.8351755 85.0981416,23.8411272 83.7921778,23.8411272 C82.7991012,23.8411272 82.2053929,24.5145148 81.9449775,25.1597231 C81.8487793,25.3919592 81.8254585,25.7135916 81.8254585,26.0381392 L81.8254585,32.0908539 L78.2243411,32.0908539 C78.2243411,32.0908539 78.2709826,22.2708612 78.2243411,21.2554354 L81.8254585,21.2554354 L81.8254585,22.7897486 C82.3045063,22.0502854 83.161545,21.0008502 85.070934,21.0008502 C87.4409085,21.0008502 89.2191182,22.5487672 89.2200899,25.8778088 L89.2200899,32.0898822 Z M74.4279121,19.7755375 L74.4045913,19.7755375 C73.1948257,19.7755375 72.4135795,18.9418195 72.4135795,17.9021013 C72.4135795,16.840034 73.2210616,16.0286651 74.4531762,16.0286651 C75.6843192,16.0286651 76.4432163,16.840034 76.4665371,17.9021013 C76.4665371,18.9418195 75.6833475,19.7755375 74.4279121,19.7755375 L74.4279121,19.7755375 Z M72.628325,32.0908539 L76.2313859,32.0908539 L76.2313859,21.2554354 L72.628325,21.2554354 L72.628325,32.0908539 Z M92.8493866,34.2800923 L92.8493866,13.7208794 C92.8493866,12.7715292 92.0603668,12 91.0867242,12 L70.7626625,12 C69.7880481,12 69,12.7705575 69,13.7208794 L69,34.2800923 C69,35.2304142 69.7880481,36 70.7626625,36 L91.0876959,36 C92.0613385,36 92.8503583,35.2313859 92.8503583,34.2800923 L92.8493866,34.2800923 Z" id="icon-linkedin-w"></path>
        </g>
    </g>
</svg>