<svg xmlns="http://www.w3.org/2000/svg" width="2588" height="2400" viewBox="0 0 2588 2400" version="1.1"><path d="M 796.559 1074.250 L 795.872 1207.500 796.186 1304.395 L 796.500 1401.289 1006 1522.214 L 1215.500 1643.140 1218.250 1644.596 L 1221 1646.051 1221 1576.695 L 1221 1507.338 1063.500 1416.994 L 906 1326.650 906 1228.218 L 906 1129.786 907.440 1130.339 L 908.880 1130.891 1065.057 1220.495 L 1221.235 1310.098 1221.706 1309.627 L 1222.177 1309.157 1221.338 1245.409 L 1220.500 1181.662 1009.500 1061.378 L 798.500 941.094 797.873 941.047 L 797.245 941 796.559 1074.250 M 1479.788 1064.320 L 1268.077 1181.500 1268.038 1413.845 L 1268 1646.191 1273.250 1643.258 L 1278.500 1640.325 1485.250 1528.532 L 1692 1416.739 1692 1344.788 L 1692 1272.838 1683.324 1277.567 L 1674.648 1282.297 1526.824 1364.044 L 1379 1445.790 1379.018 1348.645 L 1379.035 1251.500 1535.518 1165.019 L 1692 1078.539 1692 1012.769 L 1692 947 1691.750 947.070 L 1691.500 947.139 1479.788 1064.320" stroke="none" fill="#3f3f3f" fill-rule="evenodd"/><path d="M 1035.260 791.791 L 820.057 910.500 820.059 911 L 820.061 911.500 1032.202 1032.281 L 1244.343 1153.063 1303.097 1120.446 L 1361.850 1087.830 1363.537 1086.597 L 1365.223 1085.364 1220.361 1002.489 L 1075.500 919.614 1069.689 916.224 L 1063.878 912.833 1217.910 827.673 L 1371.943 742.514 1370.721 741.402 L 1369.500 740.289 1314 709.016 L 1258.500 677.742 1254.482 675.412 L 1250.464 673.082 1035.260 791.791 M 796.472 1008 L 796.472 1074.500 796.750 1041.250 L 797.027 1008 796.750 974.750 L 796.472 941.500 796.472 1008 M 1267.492 1414.500 L 1267.492 1647.500 1267.750 1530.670 L 1268.008 1413.840 1267.750 1297.670 L 1267.492 1181.500 1267.492 1414.500 M 1221.426 1231.500 L 1221.428 1253.500 1221.747 1242.195 L 1222.067 1230.889 1221.746 1220.195 L 1221.425 1209.500 1221.426 1231.500" stroke="none" fill="#5b842e" fill-rule="evenodd"/><path d="M 1219.222 1180.284 L 1220.943 1181.679 1221.251 1196.089 L 1221.559 1210.500 1221.780 1195.785 L 1222 1181.070 1219.750 1179.980 L 1217.500 1178.890 1219.222 1180.284 M 795.481 1304 L 795.481 1402.500 795.750 1353.250 L 796.019 1304 795.750 1254.750 L 795.481 1205.500 795.481 1304 M 1219.750 1506.141 L 1221 1507.400 1221 1576.807 L 1221 1646.214 1219.448 1645.618 L 1217.896 1645.023 1218.507 1646.011 L 1219.118 1647 1220.559 1647 L 1222 1647 1222 1576.607 L 1222 1506.214 1220.250 1505.548 L 1218.500 1504.882 1219.750 1506.141" stroke="none" fill="#d1d4cf" fill-rule="evenodd"/><path d="" stroke="none" fill="#444f37" fill-rule="evenodd"/></svg>