<svg xmlns="http://www.w3.org/2000/svg" width="2588" height="2400" viewBox="0 0 2588 2400" version="1.1"><path d="M 796.618 941.553 L 796 943.164 796 1172.352 L 796 1401.541 1007.823 1523.770 L 1219.645 1646 1220.330 1646 L 1221.014 1646 1220.757 1576.266 L 1220.500 1506.532 1065 1417.368 L 909.500 1328.203 907.726 1326.852 L 905.951 1325.500 906.226 1227.789 L 906.500 1130.078 1064 1220.424 L 1221.500 1310.770 1221.815 1275.135 L 1222.130 1239.500 1221.454 1210.386 L 1220.778 1181.272 1012.139 1062.433 L 803.500 943.593 800.368 941.767 L 797.236 939.942 796.618 941.553 M 1479.694 1063.931 L 1268.889 1180.711 1267.942 1181.658 L 1266.996 1182.604 1267.248 1414.727 L 1267.500 1646.850 1479.710 1532.175 L 1691.920 1417.500 1691.960 1344.727 L 1692 1271.954 1689.750 1273.370 L 1687.500 1274.786 1535.500 1358.749 L 1383.500 1442.711 1381.245 1443.893 L 1378.990 1445.076 1379.245 1348.463 L 1379.500 1251.850 1535.500 1165.598 L 1691.500 1079.345 1691.757 1013.173 L 1692.014 947 1691.257 947.076 L 1690.500 947.151 1479.694 1063.931" stroke="none" fill="#3f3f3f" fill-rule="evenodd"/><path d="M 1035.254 792.256 L 821.009 910.500 821.011 911 L 821.014 911.500 1032.679 1032.071 L 1244.344 1152.643 1304.625 1119.155 L 1364.906 1085.667 1331.632 1066.584 L 1298.358 1047.500 1181.190 980.500 L 1064.022 913.500 1064.011 912.924 L 1064 912.348 1217.500 827.485 L 1371 742.622 1370.973 742.061 L 1370.947 741.500 1311.051 707.750 L 1251.156 674 1250.328 674.006 L 1249.500 674.012 1035.254 792.256" stroke="none" fill="#fefefe" fill-rule="evenodd"/><path d="M 1219.222 1180.284 L 1220.943 1181.679 1221.251 1196.089 L 1221.559 1210.500 1221.780 1195.785 L 1222 1181.070 1219.750 1179.980 L 1217.500 1178.890 1219.222 1180.284 M 795.481 1304 L 795.481 1402.500 795.750 1353.250 L 796.019 1304 795.750 1254.750 L 795.481 1205.500 795.481 1304 M 1219.750 1506.141 L 1221 1507.400 1221 1576.807 L 1221 1646.214 1219.448 1645.618 L 1217.896 1645.023 1218.507 1646.011 L 1219.118 1647 1220.559 1647 L 1222 1647 1222 1576.607 L 1222 1506.214 1220.250 1505.548 L 1218.500 1504.882 1219.750 1506.141" stroke="none" fill="#fafbfa" fill-rule="evenodd"/><path d="" stroke="none" fill="#3c3c3c" fill-rule="evenodd"/></svg>