<svg xmlns="http://www.w3.org/2000/svg" width="896" height="977" viewBox="0 0 896 977" version="1.1"><path d="M 0.248 501.102 L 0.500 732.404 211.500 854.184 L 422.500 975.965 423.257 975.982 L 424.014 976 423.757 906.266 L 423.500 836.532 268 747.368 L 112.500 658.203 110.726 656.852 L 108.951 655.500 109.226 557.789 L 109.500 460.078 267 550.424 L 424.500 640.770 424.815 605.135 L 425.130 569.500 424.454 540.386 L 423.778 511.272 215.139 392.433 L 6.500 273.593 3.248 271.696 L -0.004 269.800 0.248 501.102 M 682.694 393.931 L 471.889 510.711 470.942 511.658 L 469.996 512.604 470.248 744.727 L 470.500 976.850 682.710 862.175 L 894.920 747.500 894.960 674.727 L 895 601.954 892.750 603.370 L 890.500 604.786 738.500 688.749 L 586.500 772.711 584.245 773.893 L 581.990 775.076 582.245 678.463 L 582.500 581.850 738.500 495.598 L 894.500 409.345 894.757 343.173 L 895.014 277 894.257 277.076 L 893.500 277.151 682.694 393.931" stroke="none" fill="#3f3f3f" fill-rule="evenodd"/><path d="M 238.254 122.256 L 24.009 240.500 24.011 241 L 24.014 241.500 235.679 362.071 L 447.344 482.643 507.625 449.155 L 567.906 415.667 534.632 396.584 L 501.358 377.500 384.190 310.500 L 267.022 243.500 267.011 242.924 L 267 242.348 420.500 157.485 L 574 72.622 573.973 72.061 L 573.947 71.500 514.051 37.750 L 454.156 4 453.328 4.006 L 452.500 4.012 238.254 122.256" stroke="none" fill="#fefefe" fill-rule="evenodd"/><path d="M 573.981 71.477 L 575.245 73 574.314 73 L 573.382 73 571.441 74.548 L 569.500 76.097 572.750 74.523 L 576 72.949 576 72.081 L 576 71.214 574.359 70.584 L 572.717 69.954 573.981 71.477 M 422.222 510.284 L 423.943 511.679 424.251 526.089 L 424.559 540.500 424.780 525.785 L 425 511.070 422.750 509.980 L 420.500 508.890 422.222 510.284 M 425.336 634 L 425.336 641.500 425.728 637.750 L 426.121 634 425.728 630.250 L 425.336 626.500 425.336 634 M 422.750 836.141 L 424 837.400 424 906.807 L 424 976.214 422.448 975.618 L 420.896 975.023 421.507 976.011 L 422.118 977 423.559 977 L 425 977 425 906.607 L 425 836.214 423.250 835.548 L 421.500 834.882 422.750 836.141" stroke="none" fill="#fbfbfa" fill-rule="evenodd"/><path d="" stroke="none" fill="#3c3c3c" fill-rule="evenodd"/></svg>