<svg xmlns="http://www.w3.org/2000/svg" width="896" height="977" viewBox="0 0 896 977" version="1.1"><path d="M 239.147 119.789 L 24.019 238.500 24.010 239.138 L 24 239.775 235.146 360.074 L 446.293 480.373 447.952 480.436 L 449.612 480.500 509.274 447.500 L 568.936 414.500 568.968 413.936 L 569 413.372 419 327.550 L 269 241.728 269 241.082 L 269 240.436 422.535 155.554 L 576.071 70.671 575.285 69.895 L 574.500 69.119 518.500 37.490 L 462.500 5.860 458.388 3.469 L 454.275 1.077 239.147 119.789 M 0.243 335.250 L 0.486 402.500 0.750 335.719 L 1.014 268.937 3.257 270.024 L 5.500 271.110 3.559 269.555 L 1.618 268 0.809 268 L 0 268 0.243 335.250 M 891.750 276.572 L 889 278.064 889 278.558 L 889 279.051 891.993 277.504 L 894.986 275.956 895.250 342.228 L 895.515 408.500 895.757 341.750 L 896 275 895.250 275.040 L 894.500 275.080 891.750 276.572 M 109.667 458.667 L 109 459.333 109 556.544 L 109 653.755 110.750 655.079 L 112.500 656.404 111.250 655.002 L 110 653.600 110 556.193 L 110 458.786 111.552 459.382 L 113.104 459.977 112.493 458.989 L 111.882 458 111.108 458 L 110.333 458 109.667 458.667 M 472.250 508.662 L 471 509.167 471 742.083 L 471 975 471.941 975 L 472.882 975 473.595 973.845 L 474.309 972.691 473.155 973.405 L 472 974.118 472 742.259 L 472 510.400 473.200 509.200 L 474.400 508 473.950 508.079 L 473.500 508.158 472.250 508.662 M 425.460 582 L 425.460 626.500 425.749 604.250 L 426.038 582 425.749 559.750 L 425.460 537.500 425.460 582 M 583.750 579.080 L 582 580.099 582 676.491 L 582 772.882 582.931 773.457 L 583.862 774.033 584.585 772.862 L 585.309 771.691 584.155 772.405 L 583 773.118 583 676.919 L 583 580.720 584.750 579.392 L 586.500 578.064 586 578.062 L 585.500 578.061 583.750 579.080 M 892.507 601.989 L 891.896 602.977 893.441 602.384 L 894.987 601.791 895.250 674.146 L 895.513 746.500 895.757 673.750 L 896 601 894.559 601 L 893.118 601 892.507 601.989" stroke="none" fill="#5b842e" fill-rule="evenodd"/><path d="M 0.665 368.793 L 0.001 468.500 0.017 599 L 0.032 729.500 211.527 851.500 L 423.023 973.500 424.011 973.833 L 425 974.167 425 905.206 L 425 836.245 423.750 835.240 L 422.500 834.234 269.500 746.527 L 116.500 658.819 112.750 656.395 L 109 653.972 109 556.545 L 109 459.118 109.859 458.587 L 110.718 458.056 267.566 548.028 L 424.413 638 425.356 638 L 426.299 638 425.650 628.846 L 425 619.693 425 564.991 L 425 510.289 213.750 389.994 L 2.500 269.698 1.915 269.392 L 1.329 269.086 0.665 368.793 M 683.465 392.768 L 472.500 509.537 472.248 741.841 L 471.996 974.144 482.847 968.322 L 493.697 962.500 694.335 854 L 894.973 745.500 894.986 673.750 L 895 602 894.250 602.039 L 893.500 602.078 738.500 687.887 L 583.500 773.695 582.750 773.288 L 582 772.882 582 676.580 L 582 580.279 738.456 493.889 L 894.911 407.500 894.956 341.750 L 895 276 894.715 276 L 894.430 276 683.465 392.768" stroke="none" fill="#3f3f3f" fill-rule="evenodd"/></svg>