<!-- Created with Inkscape (http://www.inkscape.org/) -->
<svg width="264.58331mm" height="194.5022mm" inkscape:version="0.92.2 (5c3e80d, 2017-08-06)" sodipodi:docname="drawing.svg" version="1.1" viewBox="0 0 264.58331 194.5022" xmlns="http://www.w3.org/2000/svg" xmlns:inkscape="http://www.inkscape.org/namespaces/inkscape" xmlns:sodipodi="http://sodipodi.sourceforge.net/DTD/sodipodi-0.dtd">
		<defs>
				<style type="text/css"><![CDATA[
    .fil13 {fill:#0F1B07}
    .fil10 {fill:#5C821A}
    .fil0 {fill:#6FA54D}
    .fil8 {fill:#6FA54D}
    .fil4 {fill:#81B960}
    .fil3 {fill:#95C27F}
    .fil5 {fill:#95C27F}
    .fil2 {fill:#B1CEA2}
    .fil7 {fill:#C0CFB8}
    .fil1 {fill:#CCD4C8}
    .fil14 {fill:white}
    .fil9 {fill:#0F1B07;fill-rule:nonzero}
    .fil6 {fill:#0F1B07;fill-rule:nonzero}
    .fil11 {fill:white;fill-rule:nonzero}
    .fil12 {fill:white;fill-rule:nonzero}
   ]]></style>
		</defs>
		<sodipodi:namedview id="base" bordercolor="#666666" borderopacity="1.0" inkscape:current-layer="layer1" inkscape:cx="31.083895" inkscape:cy="467.31206" inkscape:document-units="mm" inkscape:pageopacity="0.0" inkscape:pageshadow="2" inkscape:window-height="705" inkscape:window-maximized="1" inkscape:window-width="1366" inkscape:window-x="-8" inkscape:window-y="-8" inkscape:zoom="0.35" pagecolor="#ffffff" showgrid="false"/>
		<g transform="translate(25.233209,-47.736032)" inkscape:groupmode="layer" inkscape:label="Layer 1">
				<g transform="matrix(.02124314 0 0 .02124314 -49.32293 54.448864)" style="clip-rule:evenodd;fill-rule:evenodd;image-rendering:optimizeQuality;shape-rendering:geometricPrecision">
						<path class="fil0" d="m1489 2235 143 54c-27-269 275-243 439-124 66 48 57 70 92 153 22-27 87-165 166-231 160-135 237-165 469-202l-2-615c-41-2-99 38-142 49l2-127 214-96c4-2 15-8 18-10 14-10 6-5 16-17l-189 3c-156 12-306 49-438 97-261 96-527 303-692 529-50 69-121 175-149 257 30 25 76 29 106 44l-67 219c8 10-2 3 15 18z" style="fill:#6fa54d" inkscape:connector-curvature="0"/>
						<path class="fil1" d="m4038 1633-234-225c-42-37-172-119-218-147-79-49-194-93-291-124-130-41-218-44-354-69l-1 827c194 24 385 146 489 295 16 23 32 51 49 72l-19-71c125-27 43-48 181-8 64 19 121 38 188 58 130 39 278 83 362-30 2-105-84-80-160-71l-40-132c112-34 212-22 291 63-18-135-204-366-242-439z" style="fill:#ccd4c8" inkscape:connector-curvature="0"/>
						<path class="fil2" d="m3716 2569-121 38-39-98c23 103-8 284-45 379-27 69-127 231-175 259 115-4 191 35 231 106l-109 81c-98-109-194-17-136 81 87 147 157 63 210 29 7 14 58 81 71 97-5 6-3 5-12 13l-28 21c-67 53-40 112 10 166 68 74 164 34 108-90 37-29 77-59 110-82 82 91 37 188 18 248 44-26 110-92 145-131l99-113c95-130 160-224 227-401 55-144 88-289 99-459 8-115-6-412-53-497-7 43-9 65-33 98-56 74-160 110-257 108-125-4-272-70-400-93z" style="fill:#b1cea2" inkscape:connector-curvature="0"/>
						<path class="fil3" d="m3409 3608c-102 2-154-28-203-104-62-95-55-142-18-253-4 1-8 3-11 4l-95 39c-22 9-76 26-95 30-321 74-543-111-604-129-26 22-74 95-91 132l75 49c40 28 87 58 120 94-36 57-73 91-121 129l-232 123c-51 25-183 113-227 125 15 28 58 52 90 68 29 14 59 36 88 55l98 47c33 15 67 30 101 43 410 159 908 123 1292-92l95-61c-101 12-172-26-215-78-57-69-74-134-47-223z" style="fill:#95c27f" inkscape:connector-curvature="0"/>
						<path class="fil4" d="m1705 2430-12 27-378-157c-74 534 0 860 299 1273 44 61 54 63 91 103 23 24 62 73 88 82 28-32 49-63 75-99 25-36 49-67 74-104 26-37 135-176 149-215-23-10-22-9-45-29l72-106 59 35c26-55 72-94 100-149-9-18 0-4-10-17l-33-43c-125-189-147-356-112-577-16 14-26 26-44 41-61 49-145 48-217 35l38-137c180 17 164-92 33-145-158-63-221 7-193 83 7 20 8 10 17 31-24 25-23 47-49 68z" style="fill:#81b960" inkscape:connector-curvature="0"/>
						<path class="fil5" d="m2052 3651 245-153-39-36c-25-17-27-19-57-28-33 69-128 165-149 217z" style="fill:#95c27f" inkscape:connector-curvature="0"/>
						<polygon class="fil6" points="2047 1610 1991 1610 1991 1767 1968 1767 1968 1610 1911 1610 1911 1591 2047 1591" style="fill-rule:nonzero;fill:#0f1b07"/>
						<path class="fil6" d="m2112 1770c-18 0-32-6-43-17-11-12-17-27-17-47v-4c0-13 2-25 7-35s12-18 21-24 19-9 29-9c17 0 30 6 40 17 9 11 14 27 14 48v9h-89c0 13 4 23 11 31s16 12 27 12c8 0 15-2 20-5s10-7 14-13l14 11c-11 17-27 25-49 25zm-3-117c-9 0-17 3-23 10s-10 16-11 28h65v-2c-1-11-4-20-9-26s-13-9-22-9z" style="fill-rule:nonzero;fill:#0f1b07" inkscape:connector-curvature="0"/>
						<path class="fil6" d="m2265 1732c0-6-2-11-7-14s-12-6-24-9c-11-2-20-5-27-9-7-3-12-7-15-12s-5-10-5-17c0-11 5-20 14-27s21-11 35-11c15 0 27 4 36 11 9 8 14 17 14 29h-22c0-6-3-11-8-16-5-4-12-7-20-7s-15 2-19 5c-5 4-7 8-7 14 0 5 2 9 6 12s12 5 23 8 20 5 27 9c7 3 12 8 15 13s5 11 5 18c0 12-5 21-14 28s-21 11-36 11c-10 0-20-2-28-6s-14-9-19-15c-5-7-7-14-7-22h22c0 7 3 13 9 18 6 4 13 7 22 7 8 0 15-2 20-5s8-8 8-14z" style="fill-rule:nonzero;fill:#0f1b07" inkscape:connector-curvature="0"/>
						<path class="fil6" d="m2347 1605v32h24v17h-24v81c0 5 1 9 3 12s6 4 11 4c3 0 6 0 11-1v18c-6 2-12 2-17 2-10 0-18-3-23-9s-8-15-8-26v-81h-24v-17h24v-32h22z" style="fill-rule:nonzero;fill:#0f1b07" inkscape:connector-curvature="0"/>
						<path class="fil6" d="m3189 1764c-1 12-6 22-14 28-8 7-18 10-30 10-14 0-25-5-33-15s-12-23-12-39v-11c0-11 2-20 6-28s9-14 16-19c7-4 15-7 24-7 12 0 22 3 29 10s12 16 13 28h-15c-1-9-4-16-9-20-4-4-11-6-19-6-10 0-17 4-23 11s-8 17-8 31v11c0 13 3 22 8 30 5 7 13 11 22 11 8 0 15-2 19-6 5-4 8-10 9-20h15z" style="fill-rule:nonzero;fill:#0f1b07" inkscape:connector-curvature="0"/>
						<path class="fil6" d="m3203 1757c0-8 2-16 5-23s8-12 14-16 13-5 20-5c12 0 21 4 28 12s11 19 11 32v1c0 8-2 16-5 22-3 7-8 12-14 15-6 4-13 6-20 6-12 0-21-4-28-12s-11-19-11-32v-1zm15 2c0 9 2 17 7 23 4 6 10 9 18 9 7 0 13-3 18-9 4-6 7-14 7-25 0-9-2-17-7-23-4-6-10-9-18-9-7 0-13 3-17 9s-7 14-7 25z" style="fill-rule:nonzero;fill:#0f1b07" inkscape:connector-curvature="0"/>
						<polygon class="fil6" points="3315 1800 3301 1800 3301 1679 3315 1679" style="fill-rule:nonzero;fill:#0f1b07"/>
						<polygon class="fil6" points="3355 1800 3340 1800 3340 1679 3355 1679" style="fill-rule:nonzero;fill:#0f1b07"/>
						<path class="fil6" d="m3431 1800c-1-2-2-5-2-9-7 7-15 11-24 11-8 0-15-2-21-7-5-5-8-11-8-18 0-9 3-16 10-21s16-7 29-7h14v-7c0-5-2-9-5-12s-8-5-14-5c-5 0-10 1-13 4-4 3-5 6-5 10h-15c0-4 2-8 5-12s7-7 12-9 11-3 17-3c10 0 18 2 23 7 6 5 9 12 9 20v39c0 8 1 14 3 19v1h-15zm-24-11c5 0 9-1 13-4 4-2 7-6 9-9v-18h-11c-18 0-27 5-27 16 0 5 2 8 5 11s7 4 12 4z" style="fill-rule:nonzero;fill:#0f1b07" inkscape:connector-curvature="0"/>
						<path class="fil6" d="m3539 1759c0 13-3 24-9 32s-14 12-24 12c-11 0-19-4-25-11l-1 10h-13v-122h15v45c6-7 14-11 24-11s19 4 25 12 9 19 9 32v1zm-15-2c0-10-2-18-6-23s-9-8-17-8c-10 0-17 4-21 13v37c4 9 11 13 21 13 7 0 12-3 16-8s6-14 6-25z" style="fill-rule:nonzero;fill:#0f1b07" inkscape:connector-curvature="0"/>
						<path class="fil6" d="m3553 1757c0-8 2-16 5-23s8-12 14-16 13-5 20-5c12 0 21 4 28 12s11 19 11 32v1c0 8-2 16-5 22-3 7-8 12-14 15-6 4-13 6-20 6-12 0-21-4-28-12s-11-19-11-32v-1zm15 2c0 9 2 17 7 23 4 6 10 9 18 9 7 0 13-3 18-9 4-6 7-14 7-25 0-9-2-17-7-23-4-6-10-9-18-9-7 0-13 3-17 9s-7 14-7 25z" style="fill-rule:nonzero;fill:#0f1b07" inkscape:connector-curvature="0"/>
						<path class="fil6" d="m3691 1728c-2 0-5-1-7-1-10 0-16 4-20 12v61h-15v-86h14v10c5-8 12-11 20-11 3 0 5 0 6 1v14z" style="fill-rule:nonzero;fill:#0f1b07" inkscape:connector-curvature="0"/>
						<path class="fil6" d="m3754 1800c-1-2-2-5-2-9-7 7-15 11-24 11-8 0-15-2-21-7-5-5-8-11-8-18 0-9 3-16 10-21s16-7 29-7h14v-7c0-5-2-9-5-12s-8-5-14-5c-5 0-10 1-13 4-4 3-5 6-5 10h-15c0-4 2-8 5-12s7-7 12-9 11-3 17-3c10 0 18 2 23 7 6 5 9 12 9 20v39c0 8 1 14 3 19v1h-15zm-24-11c5 0 9-1 13-4 4-2 7-6 9-9v-18h-11c-18 0-27 5-27 16 0 5 2 8 5 11s7 4 12 4z" style="fill-rule:nonzero;fill:#0f1b07" inkscape:connector-curvature="0"/>
						<path class="fil6" d="m3809 1694v21h16v11h-16v53c0 3 1 6 2 8s4 3 7 3c2 0 4 0 7-1v12c-4 1-8 2-11 2-7 0-11-2-15-6-3-4-5-10-5-17v-53h-16v-11h16v-21h15z" style="fill-rule:nonzero;fill:#0f1b07" inkscape:connector-curvature="0"/>
						<path class="fil6" d="m3878 1802c-12 0-21-4-28-11-7-8-11-18-11-31v-3c0-8 2-16 5-23s8-12 14-16 12-6 19-6c11 0 20 4 26 11s9 18 9 32v6h-58c0 8 3 15 7 20 5 5 11 8 18 8 5 0 10-1 13-3 4-2 7-5 9-8l9 7c-7 11-18 17-32 17zm-2-77c-6 0-11 2-15 6s-6 10-7 18h43v-1c0-7-2-13-6-17s-8-6-15-6z" style="fill-rule:nonzero;fill:#0f1b07" inkscape:connector-curvature="0"/>
						<path class="fil6" d="m3567 3018v-137h39c12 0 22 3 32 8 9 5 16 13 21 22 5 10 8 21 8 33v9c0 13-3 24-7 34-5 10-12 17-21 22s-20 8-32 8h-38zm18-122v107h19c14 0 25-4 32-13 8-9 12-21 12-37v-8c0-16-4-28-11-36-7-9-18-13-31-13z" style="fill-rule:nonzero;fill:#0f1b07" inkscape:connector-curvature="0"/>
						<path class="fil6" d="m3709 3018h-17v-102h17zm-19-129c0-3 1-5 3-7s4-3 8-3c3 0 6 1 8 3s3 4 3 7-1 5-3 7-4 3-8 3c-3 0-6-1-8-3s-3-4-3-7z" style="fill-rule:nonzero;fill:#0f1b07" inkscape:connector-curvature="0"/>
						<path class="fil6" d="m3796 2991c0-5-2-8-5-11-4-3-10-5-18-7-9-2-16-4-21-7s-9-6-11-9c-3-4-4-8-4-13 0-8 4-15 11-21s16-9 27-9c12 0 21 3 28 9s11 14 11 23h-17c0-5-2-9-6-12s-9-5-15-5-11 1-15 4-5 6-5 11c0 4 2 7 5 9s9 4 18 6 16 4 21 7 9 6 12 10 4 8 4 14c0 9-4 16-11 22-7 5-17 8-28 8-8 0-15-1-22-4-6-3-11-7-15-12s-5-11-5-17h17c0 6 3 10 7 14 4 3 10 5 17 5s12-1 16-4 6-6 6-11z" style="fill-rule:nonzero;fill:#0f1b07" inkscape:connector-curvature="0"/>
						<path class="fil6" d="m3876 3006c6 0 12-2 16-6 5-4 7-8 8-14h16c0 6-2 11-6 17-4 5-9 9-15 13-6 3-13 5-20 5-14 0-25-5-33-14s-12-22-12-38v-3c0-10 2-19 5-26 4-8 9-14 16-18s15-6 24-6c11 0 21 3 28 10 8 7 12 16 12 27h-16c0-7-3-12-7-16s-10-6-17-6c-9 0-16 3-21 10-5 6-7 16-7 28v3c0 12 2 21 7 27s12 9 21 9z" style="fill-rule:nonzero;fill:#0f1b07" inkscape:connector-curvature="0"/>
						<path class="fil6" d="m3932 2966c0-10 2-19 6-27s9-14 16-18 15-6 24-6c14 0 25 5 34 14 9 10 13 22 13 38v1c0 10-2 19-6 27s-9 14-16 18-15 7-24 7c-14 0-25-5-33-14-9-10-13-22-13-38v-1zm17 2c0 11 3 20 8 27s12 10 21 10 16-3 21-10 8-17 8-29c0-11-3-20-8-27s-12-10-21-10-15 3-21 10c-5 7-8 17-8 29z" style="fill-rule:nonzero;fill:#0f1b07" inkscape:connector-curvature="0"/>
						<polygon class="fil6" points="4103 2917 4121 2917 4085 3018 4071 3018 4035 2917 4052 2917 4078 2995" style="fill-rule:nonzero;fill:#0f1b07"/>
						<path class="fil6" d="m4179 3020c-14 0-25-5-34-14s-13-21-13-36v-3c0-10 2-19 6-27s9-14 16-19c7-4 14-7 23-7 13 0 23 4 31 13 7 9 11 21 11 37v7h-69c0 10 3 18 9 24s13 9 21 9c6 0 11-1 16-4 4-3 8-6 11-10l11 8c-9 13-21 20-38 20zm-2-91c-7 0-13 3-18 8s-8 12-9 22h51v-1c-1-9-3-16-7-21s-10-7-17-7z" style="fill-rule:nonzero;fill:#0f1b07" inkscape:connector-curvature="0"/>
						<path class="fil6" d="m4288 2932c-3 0-5-1-9-1-11 0-19 5-23 15v72h-17v-102h17v12c6-9 14-14 24-14 3 0 6 0 8 1v16z" style="fill-rule:nonzero;fill:#0f1b07" inkscape:connector-curvature="0"/>
						<path class="fil6" d="m2557 3776v-139h39c12 0 23 3 32 8s16 13 21 23 8 21 8 34v9c0 13-3 25-8 34-5 10-12 17-22 23-9 5-20 8-33 8h-38zm18-124v109h19c14 0 25-4 33-13s12-21 12-37v-8c0-16-4-28-11-37s-18-13-31-13h-21z" style="fill-rule:nonzero;fill:#0f1b07" inkscape:connector-curvature="0"/>
						<path class="fil6" d="m2725 3777c-14 0-25-5-34-14s-13-21-13-37v-3c0-10 2-19 6-27s9-14 16-19 15-7 23-7c13 0 24 4 31 13s11 21 11 38v7h-70c0 10 3 18 9 25 6 6 13 9 22 9 6 0 11-1 16-4 4-3 8-6 11-10l11 8c-9 13-22 20-39 20zm-2-92c-7 0-13 3-18 8s-8 12-9 22h52v-1c-1-9-3-16-7-21s-10-7-18-7z" style="fill-rule:nonzero;fill:#0f1b07" inkscape:connector-curvature="0"/>
						<path class="fil6" d="m2845 3748c0-5-2-8-5-11-4-3-10-5-19-7s-16-4-21-7-9-6-12-10-4-8-4-13c0-8 4-16 11-21 7-6 16-9 27-9 12 0 21 3 28 9s11 14 11 23h-18c0-5-2-9-6-13-4-3-9-5-15-5s-11 1-15 4-5 6-5 11c0 4 2 7 5 10 3 2 9 4 18 6s16 4 21 7 9 6 12 10 4 9 4 14c0 9-4 17-11 22-7 6-17 8-29 8-8 0-16-1-22-4s-11-7-15-12-5-11-5-17h18c0 6 3 11 7 14s10 5 17 5 12-1 16-4 6-6 6-11z" style="fill-rule:nonzero;fill:#0f1b07" inkscape:connector-curvature="0"/>
						<path class="fil6" d="m2905 3776h-18v-103h18zm-19-130c0-3 1-5 3-7s4-3 8-3c3 0 6 1 8 3s3 4 3 7-1 5-3 7-4 3-8 3c-3 0-6-1-8-3s-3-4-3-7z" style="fill-rule:nonzero;fill:#0f1b07" inkscape:connector-curvature="0"/>
						<path class="fil6" d="m2929 3723c0-16 4-29 11-38 7-10 17-14 30-14s22 4 29 13l1-11h16v101c0 13-4 24-12 32s-19 12-32 12c-7 0-15-2-22-5s-13-8-16-13l9-11c8 9 17 14 28 14 9 0 15-2 20-7s7-12 7-20v-9c-7 8-17 12-29 12s-22-5-29-15-11-23-11-40zm18 2c0 12 2 21 7 27 5 7 11 10 20 10 11 0 19-5 24-15v-47c-5-10-13-15-24-15-9 0-15 3-20 10s-7 17-7 30z" style="fill-rule:nonzero;fill:#0f1b07" inkscape:connector-curvature="0"/>
						<path class="fil6" d="m3059 3673 1 13c8-10 18-15 31-15 22 0 33 12 33 37v68h-18v-68c0-7-2-13-5-16-3-4-9-5-16-5-6 0-11 2-15 5s-8 7-10 12v73h-18v-103h17z" style="fill-rule:nonzero;fill:#0f1b07" inkscape:connector-curvature="0"/>
						<path class="fil6" d="m1397 2974v-139h39c12 0 23 3 32 8s16 13 21 23 8 21 8 34v9c0 13-3 25-8 34-5 10-12 17-22 23-9 5-20 8-33 8h-38zm18-124v109h19c14 0 25-4 33-13s12-21 12-37v-8c0-16-4-28-11-37s-18-13-31-13h-21z" style="fill-rule:nonzero;fill:#0f1b07" inkscape:connector-curvature="0"/>
						<path class="fil6" d="m1565 2976c-14 0-25-5-34-14s-13-21-13-37v-3c0-10 2-19 6-27s9-14 16-19 15-7 23-7c13 0 24 4 31 13s11 21 11 38v7h-70c0 10 3 18 9 25 6 6 13 9 22 9 6 0 11-1 16-4 4-3 8-6 11-10l11 8c-9 13-22 20-39 20zm-2-92c-7 0-13 3-18 8s-8 12-9 22h52v-1c-1-9-3-16-7-21s-10-7-18-7z" style="fill-rule:nonzero;fill:#0f1b07" inkscape:connector-curvature="0"/>
						<polygon class="fil6" points="1684 2871 1702 2871 1665 2974 1652 2974 1614 2871 1632 2871 1659 2950" style="fill-rule:nonzero;fill:#0f1b07"/>
						<path class="fil6" d="m1761 2976c-14 0-25-5-34-14s-13-21-13-37v-3c0-10 2-19 6-27s9-14 16-19 15-7 23-7c13 0 24 4 31 13s11 21 11 38v7h-70c0 10 3 18 9 25 6 6 13 9 22 9 6 0 11-1 16-4 4-3 8-6 11-10l11 8c-9 13-22 20-39 20zm-2-92c-7 0-13 3-18 8s-8 12-9 22h52v-1c-1-9-3-16-7-21s-10-7-18-7z" style="fill-rule:nonzero;fill:#0f1b07" inkscape:connector-curvature="0"/>
						<polygon class="fil6" points="1840 2974 1823 2974 1823 2828 1840 2828" style="fill-rule:nonzero;fill:#0f1b07"/>
						<path class="fil6" d="m1864 2921c0-10 2-19 6-27s9-14 17-19c7-4 15-7 24-7 14 0 25 5 34 15s13 23 13 39v1c0 10-2 19-6 27s-9 14-16 19c-7 4-15 7-25 7-14 0-25-5-34-15s-13-23-13-39zm18 2c0 11 3 21 8 28s12 10 21 10 16-4 21-11 8-17 8-29c0-11-3-20-8-27s-12-11-21-11-16 3-21 10-8 17-8 30z" style="fill-rule:nonzero;fill:#0f1b07" inkscape:connector-curvature="0"/>
						<path class="fil6" d="m2067 2923c0 16-4 28-11 38s-17 14-29 14-22-4-30-12v50h-18v-143h16l1 11c7-9 17-13 30-13 12 0 22 5 29 14s11 22 11 39v2zm-18-2c0-12-2-21-7-28s-12-10-20-10c-11 0-19 5-24 14v49c5 9 13 14 24 14 8 0 15-3 20-10s7-17 7-30z" style="fill-rule:nonzero;fill:#0f1b07" inkscape:connector-curvature="0"/>
						<path class="fil7" d="m8183 2753v1l-78-63c-44-36-41-38-99-81-11-8-14-12-23-18-69-45-148-91-233-126-315-130-511-76-615-96l297 312c16 18 90 92 96 107l-316 339c-19 19-33 35-47 50 51-2 123 13 167 38l18 13c169 75 306 307 238 556-50 184-235 363-479 345-15 15-448 25-801 420-450 503-442 1254 32 1753 89 94 214 190 353 258 112 55 220 90 345 113 50 9 79 12 98 12h54v4l1 3v175c21-12 76-76 95-99l85-85c5-6 4-5 7-10 41-56 345-361 359-387-9-19-170-185-187-202-45-44-97-108-140-152-12-12-34-29-44-49l-68-64c-8-9-11-14-18-23-32-40-69-67-81-88l-5 1v50h2l-3 121h-15v1h-61c-7 2-14 2-22 0h-19l-43-30c-29-26-33-19-63-49-11-11-19-20-24-27-16-10-24-26-32-37-4-6-8-13-11-19-22-31-46-62-63-97-73-150-51-226-29-359 8-17 10-29 18-46 25-53 37-72 73-117l65-63c215-177 392-34 803-207 91-38 242-129 312-191 9-8 7-7 16-14l48-44c74-63 179-205 224-284 68-119 103-211 142-360 38-143 40-309 20-460-9-69-25-141-45-205-23-72-42-101-50-140l-30-54c-20-42-20-35-47-71l-178-255z" style="fill:#c0cfb8" inkscape:connector-curvature="0"/>
						<path class="fil5" d="m9846 5713v168l-2479 4c10 21 31 37 44 49 44 44 95 108 140 152 18 17 179 183 187 202-14 26-319 331-359 387 2 13-17 17 57 15h878v-5l1070 3v2l461 2-1 169c26-4 34-17 47-33s22-22 35-37c12-14 23-25 34-37 11-13 20-21 32-34 47-48 395-412 405-437l-270-285c-22-25-47-47-68-71-22-26-46-50-66-72-28-29-124-129-130-144l-18 2z" style="fill:#95c27f" inkscape:connector-curvature="0"/>
						<path class="fil8" d="m7135 2370-153-163c-2 2-4 3-5 4l-1 172h-54v34h-1860v8h-461l2 754 735-2v-3h251v1h267v-1c73 0 85-2 149 5h842v6h60c0 1 0 1 1 1v5l1 1v8h66v1h1v1l1 1-1 162c2 2 5 3 10 6 9-24 62-66 88-97l91-94c14-15 27-31 47-50l316-339c-7-15-80-89-96-107l-297-312z" style="fill:#6fa54d" inkscape:connector-curvature="0"/>
						<path class="fil9" d="m1345-86c-3 29-14 52-32 68s-42 24-72 24c-33 0-59-12-78-35-20-23-29-55-29-94v-27c0-26 5-48 14-68 9-19 22-34 39-45 17-10 36-16 58-16 29 0 53 8 71 25 18 16 28 39 31 68h-37c-3-22-10-38-21-48s-25-15-44-15c-23 0-41 9-55 26-13 17-20 42-20 73v27c0 30 6 54 19 72s30 27 53 27c20 0 36-5 47-14s18-25 21-48h37z" style="fill-rule:nonzero;fill:#0f1b07" inkscape:connector-curvature="0"/>
						<path class="fil9" d="m1379-103c0-20 4-38 12-54s19-28 33-37 30-13 48-13c28 0 51 10 68 29s26 45 26 77v2c0 20-4 38-11 54-8 16-19 28-33 37s-31 13-49 13c-28 0-50-10-68-29-17-19-26-45-26-77zm35 4c0 23 5 41 16 55s25 21 42 21c18 0 32-7 42-21s16-34 16-59c0-23-5-41-16-55s-25-21-43-21c-17 0-31 7-42 21s-16 34-16 59z" style="fill-rule:nonzero;fill:#0f1b07" inkscape:connector-curvature="0"/>
						<polygon class="fil9" points="1648 1 1613 1 1613 -290 1648 -290" style="fill-rule:nonzero;fill:#0f1b07"/>
						<polygon class="fil9" points="1742 1 1707 1 1707 -290 1742 -290" style="fill-rule:nonzero;fill:#0f1b07"/>
						<path class="fil9" d="m1883 5c-28 0-50-9-68-27-17-18-26-43-26-73v-6c0-20 4-38 12-54s19-29 33-38 29-14 45-14c27 0 47 9 62 26 15 18 22 43 22 75v15h-139c1 20 6 36 18 49 11 12 26 19 43 19 12 0 23-3 31-8 9-5 16-12 23-20l21 17c-17 26-43 40-77 40zm-4-184c-14 0-26 5-36 16-10 10-16 25-18 43h103v-3c-1-18-6-32-14-42-9-10-20-15-35-15z" style="fill-rule:nonzero;fill:#0f1b07" inkscape:connector-curvature="0"/>
						<path class="fil9" d="m2086-24c13 0 23-4 33-11 9-8 15-17 16-28h33c-1 12-5 23-12 34-8 11-17 19-30 25-12 6-26 9-40 9-28 0-50-9-67-28-16-19-25-44-25-77v-6c0-20 4-38 11-53 7-16 18-28 32-36 14-9 30-13 49-13 23 0 42 7 57 21s23 32 24 54h-33c-1-13-6-24-15-33s-20-13-33-13c-18 0-32 6-41 19-10 13-15 31-15 56v7c0 24 5 42 15 55s24 19 42 19z" style="fill-rule:nonzero;fill:#0f1b07" inkscape:connector-curvature="0"/>
						<path class="fil9" d="m2255-253v50h38v27h-38v127c0 8 2 14 5 19 3 4 9 6 17 6 4 0 10-1 17-2v28c-9 2-18 4-27 4-16 0-27-5-35-14s-12-23-12-40v-127h-37v-27h37v-50h35z" style="fill-rule:nonzero;fill:#0f1b07" inkscape:connector-curvature="0"/>
						<path class="fil9" d="m2537-110h-65v111h-37v-276h91c31 0 55 7 72 21s25 35 25 62c0 17-5 32-14 45s-22 22-39 29l65 117v2h-39l-60-111zm-65-30h56c18 0 32-5 43-14s16-22 16-38c0-17-5-30-15-39s-25-14-44-14h-56z" style="fill-rule:nonzero;fill:#0f1b07" inkscape:connector-curvature="0"/>
						<path class="fil9" d="m2754 5c-28 0-50-9-68-27-17-18-26-43-26-73v-6c0-20 4-38 12-54s19-29 33-38 29-14 45-14c27 0 47 9 62 26 15 18 22 43 22 75v15h-139c1 20 6 36 18 49 11 12 26 19 43 19 12 0 23-3 31-8 9-5 16-12 23-20l21 17c-17 26-43 40-77 40zm-4-184c-14 0-26 5-36 16-10 10-16 25-18 43h103v-3c-1-18-6-32-14-42-9-10-20-15-35-15z" style="fill-rule:nonzero;fill:#0f1b07" inkscape:connector-curvature="0"/>
						<path class="fil9" d="m2866-103c0-32 7-58 22-77s35-28 60-28c24 0 43 8 57 24l1-21h32v284h-35v-98c-14 15-33 23-56 23-25 0-44-10-59-29s-22-45-22-77v-2zm35 4c0 23 5 42 15 55s23 20 40 20c21 0 37-9 48-28v-100c-11-18-27-27-47-27-17 0-30 7-40 20s-15 33-15 60z" style="fill-rule:nonzero;fill:#0f1b07" inkscape:connector-curvature="0"/>
						<path class="fil9" d="m3221-19c-14 16-34 24-60 24-22 0-38-6-50-19-11-13-17-32-17-56v-133h35v132c0 31 13 47 38 47 27 0 45-10 53-30v-149h35v205h-33l-1-20z" style="fill-rule:nonzero;fill:#0f1b07" inkscape:connector-curvature="0"/>
						<path class="fil9" d="m3347 1h-35v-205h35zm-38-259c0-6 2-11 5-14 3-4 9-6 15-6 7 0 12 2 16 6s5 9 5 14c0 6-2 10-5 14s-9 6-16 6-12-2-15-6-5-9-5-14z" style="fill-rule:nonzero;fill:#0f1b07" inkscape:connector-curvature="0"/>
						<path class="fil9" d="m3502-172c-5-1-11-1-17-1-23 0-39 10-47 29v146h-35v-205h34l1 24c12-18 28-27 49-27 7 0 12 1 16 3v32z" style="fill-rule:nonzero;fill:#0f1b07" inkscape:connector-curvature="0"/>
						<path class="fil9" d="m3616 5c-28 0-50-9-68-27-17-18-26-43-26-73v-6c0-20 4-38 12-54s19-29 33-38 29-14 45-14c27 0 47 9 62 26 15 18 22 43 22 75v15h-139c1 20 6 36 18 49 11 12 26 19 43 19 12 0 23-3 31-8 9-5 16-12 23-20l21 17c-17 26-43 40-77 40zm-4-184c-14 0-26 5-36 16-10 10-16 25-18 43h103v-3c-1-18-6-32-14-42-9-10-20-15-35-15z" style="fill-rule:nonzero;fill:#0f1b07" inkscape:connector-curvature="0"/>
						<path class="fil9" d="m3769-204 1 23c15-18 35-27 61-27 29 0 48 11 59 33 7-10 16-18 27-24s24-9 39-9c45 0 68 24 69 71v137h-35v-135c0-15-3-26-10-33s-18-11-34-11c-13 0-24 4-32 12-9 8-14 18-15 31v136h-35v-134c0-30-15-45-44-45-23 0-39 10-47 29v150h-35v-205h33z" style="fill-rule:nonzero;fill:#0f1b07" inkscape:connector-curvature="0"/>
						<path class="fil9" d="m4162 5c-28 0-50-9-68-27-17-18-26-43-26-73v-6c0-20 4-38 12-54s19-29 33-38 29-14 45-14c27 0 47 9 62 26 15 18 22 43 22 75v15h-139c1 20 6 36 18 49 11 12 26 19 43 19 12 0 23-3 31-8 9-5 16-12 23-20l21 17c-17 26-43 40-77 40zm-4-184c-14 0-26 5-36 16-10 10-16 25-18 43h103v-3c-1-18-6-32-14-42-9-10-20-15-35-15z" style="fill-rule:nonzero;fill:#0f1b07" inkscape:connector-curvature="0"/>
						<path class="fil9" d="m4315-204 1 26c16-20 36-30 61-30 43 0 65 24 66 73v135h-35v-136c0-15-3-26-10-33s-17-11-31-11c-11 0-21 3-30 9s-15 14-20 24v146h-35v-205h33z" style="fill-rule:nonzero;fill:#0f1b07" inkscape:connector-curvature="0"/>
						<path class="fil9" d="m4544-253v50h38v27h-38v127c0 8 2 14 5 19 3 4 9 6 17 6 4 0 10-1 17-2v28c-9 2-18 4-27 4-16 0-27-5-35-14s-12-23-12-40v-127h-37v-27h37v-50h35z" style="fill-rule:nonzero;fill:#0f1b07" inkscape:connector-curvature="0"/>
						<path class="fil9" d="m4742-53c0-9-4-17-11-22s-20-10-37-14c-18-4-32-8-42-14-10-5-18-12-23-19s-8-16-8-26c0-17 7-31 21-43s32-17 55-17 42 6 57 18c14 12 22 27 22 46h-35c0-10-4-18-12-25s-18-10-31-10-23 3-30 8c-7 6-11 13-11 22 0 8 3 15 10 19s19 8 36 12c18 4 32 9 43 14s19 12 24 20 8 17 8 28c0 18-7 33-22 44s-34 17-57 17c-16 0-31-3-44-9s-23-14-30-24-11-22-11-34h35c1 12 5 21 14 28s20 10 35 10c13 0 24-3 32-8s12-13 12-22z" style="fill-rule:nonzero;fill:#0f1b07" inkscape:connector-curvature="0"/>
						<path class="fil9" d="m2852 393c0-13 4-25 11-37 7-11 22-24 42-39-12-15-20-27-25-36-4-9-6-18-6-27 0-21 6-37 19-49 12-12 29-18 50-18 19 0 35 6 47 17s19 25 19 42c0 11-3 21-8 31-6 9-15 19-29 30l-20 15 61 73c9-16 13-35 13-55h32c0 32-8 59-23 80l39 47h-42l-18-22c-9 8-20 15-33 19s-25 7-38 7c-27 0-49-7-65-21s-24-33-24-57zm89 49c19 0 36-7 51-21l-67-81-6 5c-21 16-32 31-32 48 0 15 5 27 14 36 10 9 23 13 40 13zm-32-189c0 12 7 27 22 46l22-16c9-6 14-12 18-17 3-6 5-12 5-20s-3-16-10-21c-6-6-14-8-24-8s-19 3-25 11c-6 7-9 16-9 27z" style="fill-rule:nonzero;fill:#0f1b07" inkscape:connector-curvature="0"/>
						<path class="fil9" d="m1273 933v-276h78c24 0 45 5 64 16 18 11 33 26 43 45 10 20 15 42 15 67v18c0 26-5 49-15 68-10 20-24 35-43 45s-40 16-65 16h-76zm36-246v216h38c28 0 50-9 66-26s23-42 23-74v-16c0-31-7-56-22-73s-36-26-63-26h-42z" style="fill-rule:nonzero;fill:#0f1b07" inkscape:connector-curvature="0"/>
						<path class="fil9" d="m1607 937c-28 0-50-9-68-27-17-18-26-43-26-73v-6c0-20 4-38 12-54s19-29 33-38 29-14 45-14c27 0 47 9 62 26 15 18 22 43 22 75v15h-139c1 20 6 36 18 49 11 12 26 19 43 19 12 0 23-3 31-8 9-5 16-12 23-20l21 17c-17 26-43 40-77 40zm-4-184c-14 0-26 5-36 16-10 10-16 25-18 43h103v-3c-1-18-6-32-14-42-9-10-20-15-35-15z" style="fill-rule:nonzero;fill:#0f1b07" inkscape:connector-curvature="0"/>
						<path class="fil9" d="m1739 933v-178h-32v-27h32v-17c0-23 7-41 20-53 13-13 32-19 55-19 14 0 32 4 54 12l-6 30c-16-6-31-10-45-10-15 0-26 3-33 10s-10 17-10 30v18h42v27h-42v178h-35zm146 0h-35v-205h35z" style="fill-rule:nonzero;fill:#0f1b07" inkscape:connector-curvature="0"/>
						<path class="fil9" d="m1976 728 1 26c16-20 36-30 61-30 43 0 65 24 66 73v135h-35v-136c0-15-3-26-10-33s-17-11-31-11c-11 0-21 3-30 9s-15 14-20 24v146h-35v-205h33z" style="fill-rule:nonzero;fill:#0f1b07" inkscape:connector-curvature="0"/>
						<path class="fil9" d="m2242 937c-28 0-50-9-68-27-17-18-26-43-26-73v-6c0-20 4-38 12-54s19-29 33-38 29-14 45-14c27 0 47 9 62 26 15 18 22 43 22 75v15h-139c1 20 6 36 18 49 11 12 26 19 43 19 12 0 23-3 31-8 9-5 16-12 23-20l21 17c-17 26-43 40-77 40zm-4-184c-14 0-26 5-36 16-10 10-16 25-18 43h103v-3c-1-18-6-32-14-42-9-10-20-15-35-15z" style="fill-rule:nonzero;fill:#0f1b07" inkscape:connector-curvature="0"/>
						<polygon class="fil9" points="2637 687 2500 687 2500 775 2620 775 2620 805 2500 805 2500 903 2639 903 2639 933 2464 933 2464 657 2637 657" style="fill-rule:nonzero;fill:#0f1b07"/>
						<polygon class="fil9" points="2660 933 2729 829 2662 728 2703 728 2747 803 2793 728 2834 728 2767 829 2836 933 2795 933 2748 856 2701 933" style="fill-rule:nonzero;fill:#0f1b07"/>
						<path class="fil9" d="m3044 832c0 31-7 56-21 75s-34 29-58 29c-25 0-44-8-59-24v99h-35v-284h32l2 23c14-18 34-27 59-27s44 9 58 28 22 44 22 77v3zm-35-4c0-23-5-41-15-55-10-13-23-20-41-20-21 0-37 9-48 28v98c10 19 27 28 48 28 17 0 30-7 40-20s15-33 15-59z" style="fill-rule:nonzero;fill:#0f1b07" inkscape:connector-curvature="0"/>
						<path class="fil9" d="m3174 937c-28 0-50-9-68-27-17-18-26-43-26-73v-6c0-20 4-38 12-54s19-29 33-38 29-14 45-14c27 0 47 9 62 26 15 18 22 43 22 75v15h-139c1 20 6 36 18 49 11 12 26 19 43 19 12 0 23-3 31-8 9-5 16-12 23-20l21 17c-17 26-43 40-77 40zm-4-184c-14 0-26 5-36 16-10 10-16 25-18 43h103v-3c-1-18-6-32-14-42-9-10-20-15-35-15z" style="fill-rule:nonzero;fill:#0f1b07" inkscape:connector-curvature="0"/>
						<path class="fil9" d="m3376 908c13 0 23-4 33-11 9-8 15-17 16-28h33c-1 12-5 23-12 34-8 11-17 19-30 25-12 6-26 9-40 9-28 0-50-9-67-28-16-19-25-44-25-77v-6c0-20 4-38 11-53 7-16 18-28 32-36 14-9 30-13 49-13 23 0 42 7 57 21s23 32 24 54h-33c-1-13-6-24-15-33s-20-13-33-13c-18 0-32 6-41 19-10 13-15 31-15 56v7c0 24 5 42 15 55s24 19 42 19z" style="fill-rule:nonzero;fill:#0f1b07" inkscape:connector-curvature="0"/>
						<path class="fil9" d="m3545 678v50h38v27h-38v127c0 8 2 14 5 19 3 4 9 6 17 6 4 0 10-1 17-2v28c-9 2-18 4-27 4-16 0-27-5-35-14s-12-23-12-40v-127h-37v-27h37v-50h35z" style="fill-rule:nonzero;fill:#0f1b07" inkscape:connector-curvature="0"/>
						<path class="fil9" d="m3751 933c-2-4-4-11-5-22-16 17-36 25-58 25-20 0-37-6-50-17s-19-26-19-43c0-21 8-38 24-50s39-18 68-18h34v-16c0-12-4-22-11-29s-18-11-32-11c-13 0-23 3-32 9-8 6-13 14-13 23h-35c0-10 4-20 11-30s17-17 30-23c12-6 26-8 41-8 24 0 42 6 55 18s20 28 21 49v94c0 19 2 34 7 45v3h-37zm-58-26c11 0 21-3 31-9s17-13 21-22v-42h-27c-43 0-64 13-64 38 0 11 4 20 11 26s17 9 28 9z" style="fill-rule:nonzero;fill:#0f1b07" inkscape:connector-curvature="0"/>
						<path class="fil9" d="m3883 678v50h38v27h-38v127c0 8 2 14 5 19 3 4 9 6 17 6 4 0 10-1 17-2v28c-9 2-18 4-27 4-16 0-27-5-35-14s-12-23-12-40v-127h-37v-27h37v-50h35z" style="fill-rule:nonzero;fill:#0f1b07" inkscape:connector-curvature="0"/>
						<path class="fil9" d="m4e3 933h-35v-205h35zm-38-259c0-6 2-11 5-14 3-4 9-6 15-6 7 0 12 2 16 6s5 9 5 14c0 6-2 10-5 14s-9 6-16 6-12-2-15-6-5-9-5-14z" style="fill-rule:nonzero;fill:#0f1b07" inkscape:connector-curvature="0"/>
						<path class="fil9" d="m4047 828c0-20 4-38 12-54s19-28 33-37 30-13 48-13c28 0 51 10 68 29s26 45 26 77v2c0 20-4 38-11 54-8 16-19 28-33 37s-31 13-49 13c-28 0-50-10-68-29-17-19-26-45-26-77zm35 4c0 23 5 41 16 55s25 21 42 21c18 0 32-7 42-21s16-34 16-59c0-23-5-41-16-55s-25-21-43-21c-17 0-31 7-42 21s-16 34-16 59z" style="fill-rule:nonzero;fill:#0f1b07" inkscape:connector-curvature="0"/>
						<path class="fil9" d="m4311 728 1 26c16-20 36-30 61-30 43 0 65 24 66 73v135h-35v-136c0-15-3-26-10-33s-17-11-31-11c-11 0-21 3-30 9s-15 14-20 24v146h-35v-205h33z" style="fill-rule:nonzero;fill:#0f1b07" inkscape:connector-curvature="0"/>
						<path class="fil9" d="m4611 878c0-9-4-17-11-22s-20-10-37-14c-18-4-32-8-42-14-10-5-18-12-23-19s-8-16-8-26c0-17 7-31 21-43s32-17 55-17 42 6 57 18c14 12 22 27 22 46h-35c0-10-4-18-12-25s-18-10-31-10-23 3-30 8c-7 6-11 13-11 22 0 8 3 15 10 19s19 8 36 12c18 4 32 9 43 14s19 12 24 20 8 17 8 28c0 18-7 33-22 44s-34 17-57 17c-16 0-31-3-44-9s-23-14-30-24-11-22-11-34h35c1 12 5 21 14 28s20 10 35 10c13 0 24-3 32-8s12-13 12-22z" style="fill-rule:nonzero;fill:#0f1b07" inkscape:connector-curvature="0"/>
						<path class="fil0" d="m2882 5612 143 54c-27-269 275-243 439-124 66 48 57 70 92 153 22-27 87-165 166-231 160-135 237-165 469-202l-2-615c-41-2-99 38-142 49l2-127 214-96c4-2 15-8 18-10 14-10 6-5 16-17l-189 3c-156 12-306 49-438 97-261 96-527 303-692 529-50 69-121 175-149 257 30 25 76 29 106 44l-67 219c8 10-2 3 15 18z" style="fill:#6fa54d" inkscape:connector-curvature="0"/>
						<path class="fil1" d="m5431 5010-234-225c-42-37-172-119-218-147-79-49-194-93-291-124-130-41-218-44-354-69l-1 827c194 24 385 146 489 295 16 23 32 51 49 72l-19-71c125-27 43-48 181-8 64 19 121 38 188 58 130 39 278 83 362-30 2-105-84-80-160-71l-40-132c112-34 212-22 291 63-18-135-204-366-242-439z" style="fill:#ccd4c8" inkscape:connector-curvature="0"/>
						<path class="fil2" d="m5110 5946-121 38-39-98c23 103-8 284-45 379-27 69-127 231-175 259 115-4 191 35 231 106l-109 81c-98-109-194-17-136 81 87 147 157 63 210 29 7 14 58 81 71 97-5 6-3 5-12 14l-28 21c-67 53-40 112 10 166 68 74 164 34 108-90 37-29 77-59 110-82 82 91 37 188 18 248 44-26 110-92 145-131l99-113c95-130 160-224 227-401 55-144 88-289 99-459 8-115-6-412-53-497-7 43-9 65-33 98-56 74-160 110-257 108-125-4-272-70-400-93l80 240z" style="fill:#b1cea2" inkscape:connector-curvature="0"/>
						<path class="fil3" d="m4803 6985c-102 2-154-28-203-104-62-95-55-142-18-253-4 1-8 3-11 4l-95 39c-22 9-76 26-95 30-321 74-543-111-604-129-26 22-74 95-91 132l75 49c40 28 87 58 120 94-36 57-73 91-121 129l-232 123c-51 25-183 113-227 125 15 28 58 52 90 68 29 14 59 36 88 55l98 47c33 15 67 30 101 43 410 159 908 123 1292-92l95-61c-101 12-172-26-215-78-57-69-74-134-47-223z" style="fill:#95c27f" inkscape:connector-curvature="0"/>
						<path class="fil4" d="m3098 5807-12 27-378-157c-74 534 0 860 299 1273 44 61 54 63 91 103 23 24 62 73 88 82 28-32 49-63 75-99 25-36 49-67 74-104 26-37 135-176 149-215-23-10-22-9-45-29l72-106 59 35c26-55 72-94 100-149-9-18 0-4-10-17l-33-43c-125-189-147-356-112-577-16 14-26 26-44 41-61 49-145 48-217 35l38-137c180 17 164-92 33-145-158-63-221 7-193 83 7 20 8 10 17 31-24 25-23 47-49 68z" style="fill:#81b960" inkscape:connector-curvature="0"/>
						<path class="fil5" d="m3446 7028 245-153-39-36c-25-17-27-19-57-28-33 69-128 165-149 217z" style="fill:#95c27f" inkscape:connector-curvature="0"/>
						<polygon class="fil6" points="3441 4987 3384 4987 3384 5144 3361 5144 3361 4987 3305 4987 3305 4968 3441 4968" style="fill-rule:nonzero;fill:#0f1b07"/>
						<path class="fil6" d="m3506 5147c-18 0-32-6-43-17-11-12-17-27-17-47v-4c0-13 2-25 7-35s12-18 21-24 19-9 29-9c17 0 30 6 40 17 9 11 14 27 14 48v9h-89c0 13 4 23 11 31s16 12 27 12c8 0 15-2 20-5s10-7 14-13l14 11c-11 17-27 25-49 25zm-3-117c-9 0-17 3-23 10s-10 16-11 28h65v-2c-1-11-4-20-9-26s-13-9-22-9z" style="fill-rule:nonzero;fill:#0f1b07" inkscape:connector-curvature="0"/>
						<path class="fil6" d="m3659 5109c0-6-2-11-7-14s-12-6-24-9c-11-2-20-5-27-9-7-3-12-7-15-12s-5-10-5-17c0-11 5-20 14-27s21-11 35-11c15 0 27 4 36 11 9 8 14 17 14 29h-22c0-6-3-11-8-16-5-4-12-7-20-7s-15 2-19 5c-5 4-7 8-7 14 0 5 2 9 6 12s12 5 23 8 20 5 27 9c7 3 12 8 15 13s5 11 5 18c0 12-5 21-14 28s-21 11-36 11c-10 0-20-2-28-6s-14-9-19-15c-5-7-7-14-7-22h22c0 7 3 13 9 18 6 4 13 7 22 7 8 0 15-2 20-5s8-8 8-14z" style="fill-rule:nonzero;fill:#0f1b07" inkscape:connector-curvature="0"/>
						<path class="fil6" d="m3740 4982v32h24v17h-24v81c0 5 1 9 3 12s6 4 11 4c3 0 6 0 11-1v18c-6 2-12 2-17 2-10 0-18-3-23-9s-8-15-8-26v-81h-24v-17h24v-32h22z" style="fill-rule:nonzero;fill:#0f1b07" inkscape:connector-curvature="0"/>
						<path class="fil6" d="m4582 5141c-1 12-6 22-14 28-8 7-18 10-30 10-14 0-25-5-33-15s-12-23-12-39v-11c0-11 2-20 6-28s9-14 16-19c7-4 15-7 24-7 12 0 22 3 29 10s12 16 13 28h-15c-1-9-4-16-9-20-4-4-11-6-19-6-10 0-17 4-23 11s-8 17-8 31v11c0 13 3 22 8 30 5 7 13 11 22 11 8 0 15-2 19-6 5-4 8-10 9-20h15z" style="fill-rule:nonzero;fill:#0f1b07" inkscape:connector-curvature="0"/>
						<path class="fil6" d="m4597 5134c0-8 2-16 5-23s8-12 14-16 13-5 20-5c12 0 21 4 28 12s11 19 11 32v1c0 8-2 16-5 22-3 7-8 12-14 15-6 4-13 6-20 6-12 0-21-4-28-12s-11-19-11-32v-1zm15 2c0 9 2 17 7 23 4 6 10 9 18 9 7 0 13-3 18-9 4-6 7-14 7-25 0-9-2-17-7-23-4-6-10-9-18-9-7 0-13 3-17 9s-7 14-7 25z" style="fill-rule:nonzero;fill:#0f1b07" inkscape:connector-curvature="0"/>
						<polygon class="fil6" points="4709 5177 4694 5177 4694 5056 4709 5056" style="fill-rule:nonzero;fill:#0f1b07"/>
						<polygon class="fil6" points="4748 5177 4733 5177 4733 5056 4748 5056" style="fill-rule:nonzero;fill:#0f1b07"/>
						<path class="fil6" d="m4824 5177c-1-2-2-5-2-9-7 7-15 11-24 11-8 0-15-2-21-7-5-5-8-11-8-18 0-9 3-16 10-21s16-7 29-7h14v-7c0-5-2-9-5-12s-8-5-14-5c-5 0-10 1-13 4-4 3-5 6-5 10h-15c0-4 2-8 5-12s7-7 12-9 11-3 17-3c10 0 18 2 23 7 6 5 9 12 9 20v39c0 8 1 14 3 19v1h-15zm-24-11c5 0 9-1 13-4 4-2 7-6 9-9v-18h-11c-18 0-27 5-27 16 0 5 2 8 5 11s7 4 12 4z" style="fill-rule:nonzero;fill:#0f1b07" inkscape:connector-curvature="0"/>
						<path class="fil6" d="m4932 5136c0 13-3 24-9 32s-14 12-24 12c-11 0-19-4-25-11l-1 10h-13v-122h15v45c6-7 14-11 24-11s19 4 25 12 9 19 9 32v1zm-15-2c0-10-2-18-6-23s-9-8-17-8c-10 0-17 4-21 13v37c4 9 11 13 21 13 7 0 12-3 16-8s6-14 6-25z" style="fill-rule:nonzero;fill:#0f1b07" inkscape:connector-curvature="0"/>
						<path class="fil6" d="m4947 5134c0-8 2-16 5-23s8-12 14-16 13-5 20-5c12 0 21 4 28 12s11 19 11 32v1c0 8-2 16-5 22-3 7-8 12-14 15-6 4-13 6-20 6-12 0-21-4-28-12s-11-19-11-32v-1zm15 2c0 9 2 17 7 23 4 6 10 9 18 9 7 0 13-3 18-9 4-6 7-14 7-25 0-9-2-17-7-23-4-6-10-9-18-9-7 0-13 3-17 9s-7 14-7 25z" style="fill-rule:nonzero;fill:#0f1b07" inkscape:connector-curvature="0"/>
						<path class="fil6" d="m5084 5105c-2 0-5-1-7-1-10 0-16 4-20 12v61h-15v-86h14v10c5-8 12-11 20-11 3 0 5 0 6 1v14z" style="fill-rule:nonzero;fill:#0f1b07" inkscape:connector-curvature="0"/>
						<path class="fil6" d="m5148 5177c-1-2-2-5-2-9-7 7-15 11-24 11-8 0-15-2-21-7-5-5-8-11-8-18 0-9 3-16 10-21s16-7 29-7h14v-7c0-5-2-9-5-12s-8-5-14-5c-5 0-10 1-13 4-4 3-5 6-5 10h-15c0-4 2-8 5-12s7-7 12-9 11-3 17-3c10 0 18 2 23 7 6 5 9 12 9 20v39c0 8 1 14 3 19v1h-15zm-24-11c5 0 9-1 13-4 4-2 7-6 9-9v-18h-11c-18 0-27 5-27 16 0 5 2 8 5 11s7 4 12 4z" style="fill-rule:nonzero;fill:#0f1b07" inkscape:connector-curvature="0"/>
						<path class="fil6" d="m5203 5071v21h16v11h-16v53c0 3 1 6 2 8s4 3 7 3c2 0 4 0 7-1v12c-4 1-8 2-11 2-7 0-11-2-15-6-3-4-5-10-5-17v-53h-16v-11h16v-21h15z" style="fill-rule:nonzero;fill:#0f1b07" inkscape:connector-curvature="0"/>
						<path class="fil6" d="m5271 5179c-12 0-21-4-28-11-7-8-11-18-11-31v-3c0-8 2-16 5-23s8-12 14-16 12-6 19-6c11 0 20 4 26 11s9 18 9 32v6h-58c0 8 3 15 7 20 5 5 11 8 18 8 5 0 10-1 13-3 4-2 7-5 9-8l9 7c-7 11-18 17-32 17zm-2-77c-6 0-11 2-15 6s-6 10-7 18h43v-1c0-7-2-13-6-17s-8-6-15-6z" style="fill-rule:nonzero;fill:#0f1b07" inkscape:connector-curvature="0"/>
						<path class="fil6" d="m4960 6395v-137h39c12 0 22 3 32 8 9 5 16 13 21 22 5 10 8 21 8 33v9c0 13-3 24-7 34-5 10-12 17-21 22s-20 8-32 8h-38zm18-122v107h19c14 0 25-4 32-13 8-9 12-21 12-37v-8c0-16-4-28-11-36-7-9-18-13-31-13z" style="fill-rule:nonzero;fill:#0f1b07" inkscape:connector-curvature="0"/>
						<path class="fil6" d="m5102 6395h-17v-102h17zm-19-129c0-3 1-5 3-7s4-3 8-3c3 0 6 1 8 3s3 4 3 7-1 5-3 7-4 3-8 3c-3 0-6-1-8-3s-3-4-3-7z" style="fill-rule:nonzero;fill:#0f1b07" inkscape:connector-curvature="0"/>
						<path class="fil6" d="m5189 6368c0-5-2-8-5-11-4-3-10-5-18-7-9-2-16-4-21-7s-9-6-11-9c-3-4-4-8-4-13 0-8 4-15 11-21s16-9 27-9c12 0 21 3 28 9s11 14 11 23h-17c0-5-2-9-6-12s-9-5-15-5-11 1-15 4-5 6-5 11c0 4 2 7 5 9s9 4 18 6 16 4 21 7 9 6 12 10 4 8 4 14c0 9-4 16-11 22-7 5-17 8-28 8-8 0-15-1-22-4-6-3-11-7-15-12s-5-11-5-17h17c0 6 3 10 7 14 4 3 10 5 17 5s12-1 16-4 6-6 6-11z" style="fill-rule:nonzero;fill:#0f1b07" inkscape:connector-curvature="0"/>
						<path class="fil6" d="m5270 6383c6 0 12-2 16-6 5-4 7-8 8-14h16c0 6-2 11-6 17-4 5-9 9-15 13-6 3-13 5-20 5-14 0-25-5-33-14s-12-22-12-38v-3c0-10 2-19 5-26 4-8 9-14 16-18s15-6 24-6c11 0 21 3 28 10 8 7 12 16 12 27h-16c0-7-3-12-7-16s-10-6-17-6c-9 0-16 3-21 10-5 6-7 16-7 28v3c0 12 2 21 7 27s12 9 21 9z" style="fill-rule:nonzero;fill:#0f1b07" inkscape:connector-curvature="0"/>
						<path class="fil6" d="m5325 6344c0-10 2-19 6-27s9-14 16-18 15-6 24-6c14 0 25 5 34 14 9 10 13 22 13 38v1c0 10-2 19-6 27s-9 14-16 18-15 7-24 7c-14 0-25-5-33-14-9-10-13-22-13-38v-1zm17 2c0 11 3 20 8 27s12 10 21 10 16-3 21-10 8-17 8-29c0-11-3-20-8-27s-12-10-21-10-15 3-21 10c-5 7-8 17-8 29z" style="fill-rule:nonzero;fill:#0f1b07" inkscape:connector-curvature="0"/>
						<polygon class="fil6" points="5497 6294 5515 6294 5478 6395 5465 6395 5428 6294 5446 6294 5472 6372" style="fill-rule:nonzero;fill:#0f1b07"/>
						<path class="fil6" d="m5572 6397c-14 0-25-5-34-14s-13-21-13-36v-3c0-10 2-19 6-27s9-14 16-19c7-4 14-7 23-7 13 0 23 4 31 13 7 9 11 21 11 37v7h-69c0 10 3 18 9 24s13 9 21 9c6 0 11-1 16-4 4-3 8-6 11-10l11 8c-9 13-21 20-38 20zm-2-91c-7 0-13 3-18 8s-8 12-9 22h51v-1c-1-9-3-16-7-21s-10-7-17-7z" style="fill-rule:nonzero;fill:#0f1b07" inkscape:connector-curvature="0"/>
						<path class="fil6" d="m5681 6309c-3 0-5-1-9-1-11 0-19 5-23 15v72h-17v-102h17v12c6-9 14-14 24-14 3 0 6 0 8 1v16z" style="fill-rule:nonzero;fill:#0f1b07" inkscape:connector-curvature="0"/>
						<path class="fil6" d="m3950 7153v-139h39c12 0 23 3 32 8s16 13 21 23 8 21 8 34v9c0 13-3 25-8 34-5 10-12 17-22 23-9 5-20 8-33 8h-38zm18-124v109h19c14 0 25-4 33-13s12-21 12-37v-8c0-16-4-28-11-37s-18-13-31-13h-21z" style="fill-rule:nonzero;fill:#0f1b07" inkscape:connector-curvature="0"/>
						<path class="fil6" d="m4118 7154c-14 0-25-5-34-14s-13-21-13-37v-3c0-10 2-19 6-27s9-14 16-19 15-7 23-7c13 0 24 4 31 13s11 21 11 38v7h-70c0 10 3 18 9 25 6 6 13 9 22 9 6 0 11-1 16-4 4-3 8-6 11-10l11 8c-9 13-22 20-39 20zm-2-92c-7 0-13 3-18 8s-8 12-9 22h52v-1c-1-9-3-16-7-21s-10-7-18-7z" style="fill-rule:nonzero;fill:#0f1b07" inkscape:connector-curvature="0"/>
						<path class="fil6" d="m4239 7125c0-5-2-8-5-11-4-3-10-5-19-7s-16-4-21-7-9-6-12-10-4-8-4-13c0-8 4-16 11-21 7-6 16-9 27-9 12 0 21 3 28 9s11 14 11 23h-18c0-5-2-9-6-13-4-3-9-5-15-5s-11 1-15 4-5 6-5 11c0 4 2 7 5 10 3 2 9 4 18 6s16 4 21 7 9 6 12 10 4 9 4 14c0 9-4 17-11 22-7 6-17 8-29 8-8 0-16-1-22-4s-11-7-15-12-5-11-5-17h18c0 6 3 11 7 14s10 5 17 5 12-1 16-4 6-6 6-11z" style="fill-rule:nonzero;fill:#0f1b07" inkscape:connector-curvature="0"/>
						<path class="fil6" d="m4299 7153h-18v-103h18zm-19-130c0-3 1-5 3-7s4-3 8-3c3 0 6 1 8 3s3 4 3 7-1 5-3 7-4 3-8 3c-3 0-6-1-8-3s-3-4-3-7z" style="fill-rule:nonzero;fill:#0f1b07" inkscape:connector-curvature="0"/>
						<path class="fil6" d="m4323 7100c0-16 4-29 11-38 7-10 17-14 30-14s22 4 29 13l1-11h16v101c0 13-4 24-12 32s-19 12-32 12c-7 0-15-2-22-5s-13-8-16-13l9-11c8 9 17 14 28 14 9 0 15-2 20-7s7-12 7-20v-9c-7 8-17 12-29 12s-22-5-29-15-11-23-11-40zm18 2c0 12 2 21 7 27 5 7 11 10 20 10 11 0 19-5 24-15v-47c-5-10-13-15-24-15-9 0-15 3-20 10s-7 17-7 30z" style="fill-rule:nonzero;fill:#0f1b07" inkscape:connector-curvature="0"/>
						<path class="fil6" d="m4453 7050 1 13c8-10 18-15 31-15 22 0 33 12 33 37v68h-18v-68c0-7-2-13-5-16-3-4-9-5-16-5-6 0-11 2-15 5s-8 7-10 12v73h-18v-103h17z" style="fill-rule:nonzero;fill:#0f1b07" inkscape:connector-curvature="0"/>
						<path class="fil6" d="m2791 6351v-139h39c12 0 23 3 32 8s16 13 21 23 8 21 8 34v9c0 13-3 25-8 34-5 10-12 17-22 23-9 5-20 8-33 8h-38zm18-124v109h19c14 0 25-4 33-13s12-21 12-37v-8c0-16-4-28-11-37s-18-13-31-13h-21z" style="fill-rule:nonzero;fill:#0f1b07" inkscape:connector-curvature="0"/>
						<path class="fil6" d="m2959 6353c-14 0-25-5-34-14s-13-21-13-37v-3c0-10 2-19 6-27s9-14 16-19 15-7 23-7c13 0 24 4 31 13s11 21 11 38v7h-70c0 10 3 18 9 25 6 6 13 9 22 9 6 0 11-1 16-4 4-3 8-6 11-10l11 8c-9 13-22 20-39 20zm-2-92c-7 0-13 3-18 8s-8 12-9 22h52v-1c-1-9-3-16-7-21s-10-7-18-7z" style="fill-rule:nonzero;fill:#0f1b07" inkscape:connector-curvature="0"/>
						<polygon class="fil6" points="3078 6248 3096 6248 3059 6351 3045 6351 3008 6248 3026 6248 3052 6327" style="fill-rule:nonzero;fill:#0f1b07"/>
						<path class="fil6" d="m3154 6353c-14 0-25-5-34-14s-13-21-13-37v-3c0-10 2-19 6-27s9-14 16-19 15-7 23-7c13 0 24 4 31 13s11 21 11 38v7h-70c0 10 3 18 9 25 6 6 13 9 22 9 6 0 11-1 16-4 4-3 8-6 11-10l11 8c-9 13-22 20-39 20zm-2-92c-7 0-13 3-18 8s-8 12-9 22h52v-1c-1-9-3-16-7-21s-10-7-18-7z" style="fill-rule:nonzero;fill:#0f1b07" inkscape:connector-curvature="0"/>
						<polygon class="fil6" points="3234 6351 3216 6351 3216 6205 3234 6205" style="fill-rule:nonzero;fill:#0f1b07"/>
						<path class="fil6" d="m3257 6298c0-10 2-19 6-27s9-14 17-19c7-4 15-7 24-7 14 0 25 5 34 15s13 23 13 39v1c0 10-2 19-6 27s-9 14-16 19c-7 4-15 7-25 7-14 0-25-5-34-15s-13-23-13-39zm18 2c0 11 3 21 8 28s12 10 21 10 16-4 21-11 8-17 8-29c0-11-3-20-8-27s-12-11-21-11-16 3-21 10-8 17-8 30z" style="fill-rule:nonzero;fill:#0f1b07" inkscape:connector-curvature="0"/>
						<path class="fil6" d="m3460 6301c0 16-4 28-11 38s-17 14-29 14-22-4-30-12v50h-18v-143h16l1 11c7-9 17-13 30-13 12 0 22 5 29 14s11 22 11 39v2zm-18-2c0-12-2-21-7-28s-12-10-20-10c-11 0-19 5-24 14v49c5 9 13 14 24 14 8 0 15-3 20-10s7-17 7-30z" style="fill-rule:nonzero;fill:#0f1b07" inkscape:connector-curvature="0"/>
						<path class="fil0" d="m8924 2213 143 54c-27-269 275-243 439-124 66 48 57 70 92 153 22-27 87-165 166-231 160-135 237-165 469-202l-2-615c-41-2-99 38-142 49l2-127 214-96c4-2 15-8 18-10 14-10 6-5 16-17l-189 3c-156 12-306 49-438 97-261 96-527 303-692 529-50 69-121 175-149 257 30 25 76 29 106 44l-67 219c8 10-2 3 15 18z" style="fill:#6fa54d" inkscape:connector-curvature="0"/>
						<path class="fil1" d="m11473 1611-234-225c-42-37-172-119-218-147-79-49-194-93-291-124-130-41-218-44-354-69l-1 827c194 24 385 146 489 295 16 23 32 51 49 72l-19-71c125-27 43-48 181-8 64 19 121 38 188 58 130 39 278 83 362-30 2-105-84-80-160-71l-40-132c112-34 212-22 291 63-18-135-204-366-242-439z" style="fill:#ccd4c8" inkscape:connector-curvature="0"/>
						<path class="fil2" d="m11151 2546-121 38-39-98c23 103-8 284-45 379-27 69-127 231-175 259 115-4 191 35 231 106l-109 81c-98-109-194-17-136 81 87 147 157 63 210 29 7 14 58 81 71 97-5 6-3 5-12 14l-28 21c-67 53-40 112 10 166 68 74 164 34 108-90 37-29 77-59 110-82 82 91 37 188 18 248 44-26 110-92 145-131l99-113c95-130 160-224 227-401 55-144 88-289 99-459 8-115-6-412-53-497-7 43-9 65-33 98-56 74-160 110-257 108-125-4-272-70-400-93l80 240z" style="fill:#b1cea2" inkscape:connector-curvature="0"/>
						<path class="fil3" d="m10844 3586c-102 2-154-28-203-104-62-95-55-142-18-253-4 1-8 3-11 4l-95 39c-22 9-76 26-95 30-321 74-543-111-604-129-26 22-74 95-91 132l75 49c40 28 87 58 120 94-36 57-73 91-121 129l-232 123c-51 25-183 113-227 125 15 28 58 52 90 68 29 14 59 36 88 55l98 47c33 15 67 30 101 43 410 159 908 123 1292-92l95-61c-101 12-172-26-215-78-57-69-74-134-47-223z" style="fill:#95c27f" inkscape:connector-curvature="0"/>
						<path class="fil4" d="m9139 2407-12 27-378-157c-74 534 0 860 299 1273 44 61 54 63 91 103 23 24 62 73 88 82 28-32 49-63 75-99 25-36 49-67 74-104 26-37 135-176 149-215-23-10-22-9-45-29l72-106 59 35c26-55 72-94 100-149-9-18 0-4-10-17l-33-43c-125-189-147-356-112-577-16 14-26 26-44 41-61 49-145 48-217 35l38-137c180 17 164-92 33-145-158-63-221 7-193 83 7 20 8 10 17 31-24 25-23 47-49 68z" style="fill:#81b960" inkscape:connector-curvature="0"/>
						<path class="fil5" d="m9487 3629 245-153-39-36c-25-17-27-19-57-28-33 69-128 165-149 217z" style="fill:#95c27f" inkscape:connector-curvature="0"/>
						<polygon class="fil6" points="9482 1588 9426 1588 9426 1745 9403 1745 9403 1588 9346 1588 9346 1569 9482 1569" style="fill-rule:nonzero;fill:#0f1b07"/>
						<path class="fil6" d="m9547 1747c-18 0-32-6-43-17-11-12-17-27-17-47v-4c0-13 2-25 7-35s12-18 21-24 19-9 29-9c17 0 30 6 40 17 9 11 14 27 14 48v9h-89c0 13 4 23 11 31s16 12 27 12c8 0 15-2 20-5s10-7 14-13l14 11c-11 17-27 25-49 25zm-3-117c-9 0-17 3-23 10s-10 16-11 28h65v-2c-1-11-4-20-9-26s-13-9-22-9z" style="fill-rule:nonzero;fill:#0f1b07" inkscape:connector-curvature="0"/>
						<path class="fil6" d="m9700 1710c0-6-2-11-7-14s-12-6-24-9c-11-2-20-5-27-9-7-3-12-7-15-12s-5-10-5-17c0-11 5-20 14-27s21-11 35-11c15 0 27 4 36 11 9 8 14 17 14 29h-22c0-6-3-11-8-16-5-4-12-7-20-7s-15 2-19 5c-5 4-7 8-7 14 0 5 2 9 6 12s12 5 23 8 20 5 27 9c7 3 12 8 15 13s5 11 5 18c0 12-5 21-14 28s-21 11-36 11c-10 0-20-2-28-6s-14-9-19-15c-5-7-7-14-7-22h22c0 7 3 13 9 18 6 4 13 7 22 7 8 0 15-2 20-5s8-8 8-14z" style="fill-rule:nonzero;fill:#0f1b07" inkscape:connector-curvature="0"/>
						<path class="fil6" d="m9782 1583v32h24v17h-24v81c0 5 1 9 3 12s6 4 11 4c3 0 6 0 11-1v18c-6 2-12 2-17 2-10 0-18-3-23-9s-8-15-8-26v-81h-24v-17h24v-32h22z" style="fill-rule:nonzero;fill:#0f1b07" inkscape:connector-curvature="0"/>
						<path class="fil6" d="m10623 1742c-1 12-6 22-14 28-8 7-18 10-30 10-14 0-25-5-33-15s-12-23-12-39v-11c0-11 2-20 6-28s9-14 16-19c7-4 15-7 24-7 12 0 22 3 29 10s12 16 13 28h-15c-1-9-4-16-9-20-4-4-11-6-19-6-10 0-17 4-23 11s-8 17-8 31v11c0 13 3 22 8 30 5 7 13 11 22 11 8 0 15-2 19-6 5-4 8-10 9-20h15z" style="fill-rule:nonzero;fill:#0f1b07" inkscape:connector-curvature="0"/>
						<path class="fil6" d="m10638 1735c0-8 2-16 5-23s8-12 14-16 13-5 20-5c12 0 21 4 28 12s11 19 11 32v1c0 8-2 16-5 22-3 7-8 12-14 15-6 4-13 6-20 6-12 0-21-4-28-12s-11-19-11-32v-1zm15 2c0 9 2 17 7 23 4 6 10 9 18 9 7 0 13-3 18-9 4-6 7-14 7-25 0-9-2-17-7-23-4-6-10-9-18-9-7 0-13 3-17 9s-7 14-7 25z" style="fill-rule:nonzero;fill:#0f1b07" inkscape:connector-curvature="0"/>
						<polygon class="fil6" points="10750 1778 10736 1778 10736 1657 10750 1657" style="fill-rule:nonzero;fill:#0f1b07"/>
						<polygon class="fil6" points="10790 1778 10775 1778 10775 1657 10790 1657" style="fill-rule:nonzero;fill:#0f1b07"/>
						<path class="fil6" d="m10866 1778c-1-2-2-5-2-9-7 7-15 11-24 11-8 0-15-2-21-7-5-5-8-11-8-18 0-9 3-16 10-21s16-7 29-7h14v-7c0-5-2-9-5-12s-8-5-14-5c-5 0-10 1-13 4-4 3-5 6-5 10h-15c0-4 2-8 5-12s7-7 12-9 11-3 17-3c10 0 18 2 23 7 6 5 9 12 9 20v39c0 8 1 14 3 19v1h-15zm-24-11c5 0 9-1 13-4 4-2 7-6 9-9v-18h-11c-18 0-27 5-27 16 0 5 2 8 5 11s7 4 12 4z" style="fill-rule:nonzero;fill:#0f1b07" inkscape:connector-curvature="0"/>
						<path class="fil6" d="m10974 1736c0 13-3 24-9 32s-14 12-24 12c-11 0-19-4-25-11l-1 10h-13v-122h15v45c6-7 14-11 24-11s19 4 25 12 9 19 9 32v1zm-15-2c0-10-2-18-6-23s-9-8-17-8c-10 0-17 4-21 13v37c4 9 11 13 21 13 7 0 12-3 16-8s6-14 6-25z" style="fill-rule:nonzero;fill:#0f1b07" inkscape:connector-curvature="0"/>
						<path class="fil6" d="m10988 1735c0-8 2-16 5-23s8-12 14-16 13-5 20-5c12 0 21 4 28 12s11 19 11 32v1c0 8-2 16-5 22-3 7-8 12-14 15-6 4-13 6-20 6-12 0-21-4-28-12s-11-19-11-32v-1zm15 2c0 9 2 17 7 23 4 6 10 9 18 9 7 0 13-3 18-9 4-6 7-14 7-25 0-9-2-17-7-23-4-6-10-9-18-9-7 0-13 3-17 9s-7 14-7 25z" style="fill-rule:nonzero;fill:#0f1b07" inkscape:connector-curvature="0"/>
						<path class="fil6" d="m11126 1706c-2 0-5-1-7-1-10 0-16 4-20 12v61h-15v-86h14v10c5-8 12-11 20-11 3 0 5 0 6 1v14z" style="fill-rule:nonzero;fill:#0f1b07" inkscape:connector-curvature="0"/>
						<path class="fil6" d="m11189 1778c-1-2-2-5-2-9-7 7-15 11-24 11-8 0-15-2-21-7-5-5-8-11-8-18 0-9 3-16 10-21s16-7 29-7h14v-7c0-5-2-9-5-12s-8-5-14-5c-5 0-10 1-13 4-4 3-5 6-5 10h-15c0-4 2-8 5-12s7-7 12-9 11-3 17-3c10 0 18 2 23 7 6 5 9 12 9 20v39c0 8 1 14 3 19v1h-15zm-24-11c5 0 9-1 13-4 4-2 7-6 9-9v-18h-11c-18 0-27 5-27 16 0 5 2 8 5 11s7 4 12 4z" style="fill-rule:nonzero;fill:#0f1b07" inkscape:connector-curvature="0"/>
						<path class="fil6" d="m11244 1672v21h16v11h-16v53c0 3 1 6 2 8s4 3 7 3c2 0 4 0 7-1v12c-4 1-8 2-11 2-7 0-11-2-15-6-3-4-5-10-5-17v-53h-16v-11h16v-21h15z" style="fill-rule:nonzero;fill:#0f1b07" inkscape:connector-curvature="0"/>
						<path class="fil6" d="m11313 1780c-12 0-21-4-28-11-7-8-11-18-11-31v-3c0-8 2-16 5-23s8-12 14-16 12-6 19-6c11 0 20 4 26 11s9 18 9 32v6h-58c0 8 3 15 7 20 5 5 11 8 18 8 5 0 10-1 13-3 4-2 7-5 9-8l9 7c-7 11-18 17-32 17zm-2-77c-6 0-11 2-15 6s-6 10-7 18h43v-1c0-7-2-13-6-17s-8-6-15-6z" style="fill-rule:nonzero;fill:#0f1b07" inkscape:connector-curvature="0"/>
						<path class="fil6" d="m11001 2996v-137h39c12 0 22 3 32 8 9 5 16 13 21 22 5 10 8 21 8 33v9c0 13-3 24-7 34-5 10-12 17-21 22s-20 8-32 8h-38zm18-122v107h19c14 0 25-4 32-13 8-9 12-21 12-37v-8c0-16-4-28-11-36-7-9-18-13-31-13z" style="fill-rule:nonzero;fill:#0f1b07" inkscape:connector-curvature="0"/>
						<path class="fil6" d="m11144 2996h-17v-102h17zm-19-129c0-3 1-5 3-7s4-3 8-3c3 0 6 1 8 3s3 4 3 7-1 5-3 7-4 3-8 3c-3 0-6-1-8-3s-3-4-3-7z" style="fill-rule:nonzero;fill:#0f1b07" inkscape:connector-curvature="0"/>
						<path class="fil6" d="m11231 2969c0-5-2-8-5-11-4-3-10-5-18-7-9-2-16-4-21-7s-9-6-11-9c-3-4-4-8-4-13 0-8 4-15 11-21s16-9 27-9c12 0 21 3 28 9s11 14 11 23h-17c0-5-2-9-6-12s-9-5-15-5-11 1-15 4-5 6-5 11c0 4 2 7 5 9s9 4 18 6 16 4 21 7 9 6 12 10 4 8 4 14c0 9-4 16-11 22-7 5-17 8-28 8-8 0-15-1-22-4-6-3-11-7-15-12s-5-11-5-17h17c0 6 3 10 7 14 4 3 10 5 17 5s12-1 16-4 6-6 6-11z" style="fill-rule:nonzero;fill:#0f1b07" inkscape:connector-curvature="0"/>
						<path class="fil6" d="m11311 2984c6 0 12-2 16-6 5-4 7-8 8-14h16c0 6-2 11-6 17-4 5-9 9-15 13-6 3-13 5-20 5-14 0-25-5-33-14s-12-22-12-38v-3c0-10 2-19 5-26 4-8 9-14 16-18s15-6 24-6c11 0 21 3 28 10 8 7 12 16 12 27h-16c0-7-3-12-7-16s-10-6-17-6c-9 0-16 3-21 10-5 6-7 16-7 28v3c0 12 2 21 7 27s12 9 21 9z" style="fill-rule:nonzero;fill:#0f1b07" inkscape:connector-curvature="0"/>
						<path class="fil6" d="m11367 2944c0-10 2-19 6-27s9-14 16-18 15-6 24-6c14 0 25 5 34 14 9 10 13 22 13 38v1c0 10-2 19-6 27s-9 14-16 18-15 7-24 7c-14 0-25-5-33-14-9-10-13-22-13-38v-1zm17 2c0 11 3 20 8 27s12 10 21 10 16-3 21-10 8-17 8-29c0-11-3-20-8-27s-12-10-21-10-15 3-21 10c-5 7-8 17-8 29z" style="fill-rule:nonzero;fill:#0f1b07" inkscape:connector-curvature="0"/>
						<polygon class="fil6" points="11538 2895 11556 2895 11520 2996 11506 2996 11469 2895 11487 2895 11513 2972" style="fill-rule:nonzero;fill:#0f1b07"/>
						<path class="fil6" d="m11614 2998c-14 0-25-5-34-14s-13-21-13-36v-3c0-10 2-19 6-27s9-14 16-19c7-4 14-7 23-7 13 0 23 4 31 13 7 9 11 21 11 37v7h-69c0 10 3 18 9 24s13 9 21 9c6 0 11-1 16-4 4-3 8-6 11-10l11 8c-9 13-21 20-38 20zm-2-91c-7 0-13 3-18 8s-8 12-9 22h51v-1c-1-9-3-16-7-21s-10-7-17-7z" style="fill-rule:nonzero;fill:#0f1b07" inkscape:connector-curvature="0"/>
						<path class="fil6" d="m11722 2910c-3 0-5-1-9-1-11 0-19 5-23 15v72h-17v-102h17v12c6-9 14-14 24-14 3 0 6 0 8 1v16z" style="fill-rule:nonzero;fill:#0f1b07" inkscape:connector-curvature="0"/>
						<path class="fil6" d="m9992 3753v-139h39c12 0 23 3 32 8s16 13 21 23 8 21 8 34v9c0 13-3 25-8 34-5 10-12 17-22 23-9 5-20 8-33 8h-38zm18-124v109h19c14 0 25-4 33-13s12-21 12-37v-8c0-16-4-28-11-37s-18-13-31-13h-21z" style="fill-rule:nonzero;fill:#0f1b07" inkscape:connector-curvature="0"/>
						<path class="fil6" d="m10160 3755c-14 0-25-5-34-14s-13-21-13-37v-3c0-10 2-19 6-27s9-14 16-19 15-7 23-7c13 0 24 4 31 13s11 21 11 38v7h-70c0 10 3 18 9 25 6 6 13 9 22 9 6 0 11-1 16-4 4-3 8-6 11-10l11 8c-9 13-22 20-39 20zm-2-92c-7 0-13 3-18 8s-8 12-9 22h52v-1c-1-9-3-16-7-21s-10-7-18-7z" style="fill-rule:nonzero;fill:#0f1b07" inkscape:connector-curvature="0"/>
						<path class="fil6" d="m10280 3726c0-5-2-8-5-11-4-3-10-5-19-7s-16-4-21-7-9-6-12-10-4-8-4-13c0-8 4-16 11-21 7-6 16-9 27-9 12 0 21 3 28 9s11 14 11 23h-18c0-5-2-9-6-13-4-3-9-5-15-5s-11 1-15 4-5 6-5 11c0 4 2 7 5 10 3 2 9 4 18 6s16 4 21 7 9 6 12 10 4 9 4 14c0 9-4 17-11 22-7 6-17 8-29 8-8 0-16-1-22-4s-11-7-15-12-5-11-5-17h18c0 6 3 11 7 14s10 5 17 5 12-1 16-4 6-6 6-11z" style="fill-rule:nonzero;fill:#0f1b07" inkscape:connector-curvature="0"/>
						<path class="fil6" d="m10340 3753h-18v-103h18zm-19-130c0-3 1-5 3-7s4-3 8-3c3 0 6 1 8 3s3 4 3 7-1 5-3 7-4 3-8 3c-3 0-6-1-8-3s-3-4-3-7z" style="fill-rule:nonzero;fill:#0f1b07" inkscape:connector-curvature="0"/>
						<path class="fil6" d="m10364 3701c0-16 4-29 11-38 7-10 17-14 30-14s22 4 29 13l1-11h16v101c0 13-4 24-12 32s-19 12-32 12c-7 0-15-2-22-5s-13-8-16-13l9-11c8 9 17 14 28 14 9 0 15-2 20-7s7-12 7-20v-9c-7 8-17 12-29 12s-22-5-29-15-11-23-11-40zm18 2c0 12 2 21 7 27 5 7 11 10 20 10 11 0 19-5 24-15v-47c-5-10-13-15-24-15-9 0-15 3-20 10s-7 17-7 30z" style="fill-rule:nonzero;fill:#0f1b07" inkscape:connector-curvature="0"/>
						<path class="fil6" d="m10494 3650 1 13c8-10 18-15 31-15 22 0 33 12 33 37v68h-18v-68c0-7-2-13-5-16-3-4-9-5-16-5-6 0-11 2-15 5s-8 7-10 12v73h-18v-103h17z" style="fill-rule:nonzero;fill:#0f1b07" inkscape:connector-curvature="0"/>
						<path class="fil6" d="m8832 2952v-139h39c12 0 23 3 32 8s16 13 21 23 8 21 8 34v9c0 13-3 25-8 34-5 10-12 17-22 23-9 5-20 8-33 8h-38zm18-124v109h19c14 0 25-4 33-13s12-21 12-37v-8c0-16-4-28-11-37s-18-13-31-13h-21z" style="fill-rule:nonzero;fill:#0f1b07" inkscape:connector-curvature="0"/>
						<path class="fil6" d="m9e3 2954c-14 0-25-5-34-14s-13-21-13-37v-3c0-10 2-19 6-27s9-14 16-19 15-7 23-7c13 0 24 4 31 13s11 21 11 38v7h-70c0 10 3 18 9 25 6 6 13 9 22 9 6 0 11-1 16-4 4-3 8-6 11-10l11 8c-9 13-22 20-39 20zm-2-92c-7 0-13 3-18 8s-8 12-9 22h52v-1c-1-9-3-16-7-21s-10-7-18-7z" style="fill-rule:nonzero;fill:#0f1b07" inkscape:connector-curvature="0"/>
						<polygon class="fil6" points="9119 2849 9137 2849 9100 2952 9087 2952 9049 2849 9067 2849 9093 2928" style="fill-rule:nonzero;fill:#0f1b07"/>
						<path class="fil6" d="m9195 2954c-14 0-25-5-34-14s-13-21-13-37v-3c0-10 2-19 6-27s9-14 16-19 15-7 23-7c13 0 24 4 31 13s11 21 11 38v7h-70c0 10 3 18 9 25 6 6 13 9 22 9 6 0 11-1 16-4 4-3 8-6 11-10l11 8c-9 13-22 20-39 20zm-2-92c-7 0-13 3-18 8s-8 12-9 22h52v-1c-1-9-3-16-7-21s-10-7-18-7z" style="fill-rule:nonzero;fill:#0f1b07" inkscape:connector-curvature="0"/>
						<polygon class="fil6" points="9275 2952 9258 2952 9258 2805 9275 2805" style="fill-rule:nonzero;fill:#0f1b07"/>
						<path class="fil6" d="m9299 2899c0-10 2-19 6-27s9-14 17-19c7-4 15-7 24-7 14 0 25 5 34 15s13 23 13 39v1c0 10-2 19-6 27s-9 14-16 19c-7 4-15 7-25 7-14 0-25-5-34-15s-13-23-13-39zm18 2c0 11 3 21 8 28s12 10 21 10 16-4 21-11 8-17 8-29c0-11-3-20-8-27s-12-11-21-11-16 3-21 10-8 17-8 30z" style="fill-rule:nonzero;fill:#0f1b07" inkscape:connector-curvature="0"/>
						<path class="fil6" d="m9502 2901c0 16-4 28-11 38s-17 14-29 14-22-4-30-12v50h-18v-143h16l1 11c7-9 17-13 30-13 12 0 22 5 29 14s11 22 11 39v2zm-18-2c0-12-2-21-7-28s-12-10-20-10c-11 0-19 5-24 14v49c5 9 13 14 24 14 8 0 15-3 20-10s7-17 7-30z" style="fill-rule:nonzero;fill:#0f1b07" inkscape:connector-curvature="0"/>
						<path class="fil9" d="m9112-25v-276h78c24 0 45 5 64 16 18 11 33 26 43 45 10 20 15 42 15 67v18c0 26-5 49-15 68-10 20-24 35-43 45s-40 16-65 16h-76zm36-246v216h38c28 0 50-9 66-26s23-42 23-74v-16c0-31-7-56-22-73s-36-26-63-26h-42z" style="fill-rule:nonzero;fill:#0f1b07" inkscape:connector-curvature="0"/>
						<path class="fil9" d="m9446-21c-28 0-50-9-68-27-17-18-26-43-26-73v-6c0-20 4-38 12-54s19-29 33-38 29-14 45-14c27 0 47 9 62 26 15 18 22 43 22 75v15h-139c1 20 6 36 18 49 11 12 26 19 43 19 12 0 23-3 31-8 9-5 16-12 23-20l21 17c-17 26-43 40-77 40zm-4-184c-14 0-26 5-36 16-10 10-16 25-18 43h103v-3c-1-18-6-32-14-42-9-10-20-15-35-15z" style="fill-rule:nonzero;fill:#0f1b07" inkscape:connector-curvature="0"/>
						<polygon class="fil9" points="9683 -230 9718 -230 9645 -25 9618 -25 9544 -230 9580 -230 9632 -73" style="fill-rule:nonzero;fill:#0f1b07"/>
						<path class="fil9" d="m9835-21c-28 0-50-9-68-27-17-18-26-43-26-73v-6c0-20 4-38 12-54s19-29 33-38 29-14 45-14c27 0 47 9 62 26 15 18 22 43 22 75v15h-139c1 20 6 36 18 49 11 12 26 19 43 19 12 0 23-3 31-8 9-5 16-12 23-20l21 17c-17 26-43 40-77 40zm-4-184c-14 0-26 5-36 16-10 10-16 25-18 43h103v-3c-1-18-6-32-14-42-9-10-20-15-35-15z" style="fill-rule:nonzero;fill:#0f1b07" inkscape:connector-curvature="0"/>
						<polygon class="fil9" points="9993 -25 9958 -25 9958 -316 9993 -316" style="fill-rule:nonzero;fill:#0f1b07"/>
						<path class="fil9" d="m10040-129c0-20 4-38 12-54s19-28 33-37 30-13 48-13c28 0 51 10 68 29s26 45 26 77v2c0 20-4 38-11 54-8 16-19 28-33 37s-31 13-49 13c-28 0-50-10-68-29-17-19-26-45-26-77zm35 4c0 23 5 41 16 55s25 21 42 21c18 0 32-7 42-21s16-34 16-59c0-23-5-41-16-55s-25-21-43-21c-17 0-31 7-42 21s-16 34-16 59z" style="fill-rule:nonzero;fill:#0f1b07" inkscape:connector-curvature="0"/>
						<path class="fil9" d="m10444-125c0 31-7 56-21 75s-34 29-58 29c-25 0-44-8-59-24v99h-35v-284h32l2 23c14-18 34-27 59-27s44 9 58 28 22 44 22 77v3zm-35-4c0-23-5-41-15-55-10-13-23-20-41-20-21 0-37 9-48 28v98c10 19 27 28 48 28 17 0 30-7 40-20s15-33 15-59z" style="fill-rule:nonzero;fill:#0f1b07" inkscape:connector-curvature="0"/>
						<path class="fil9" d="m10521-230 1 23c15-18 35-27 61-27 29 0 48 11 59 33 7-10 16-18 27-24s24-9 39-9c45 0 68 24 69 71v137h-35v-135c0-15-3-26-10-33s-18-11-34-11c-13 0-24 4-32 12-9 8-14 18-15 31v136h-35v-134c0-30-15-45-44-45-23 0-39 10-47 29v150h-35v-205h33z" style="fill-rule:nonzero;fill:#0f1b07" inkscape:connector-curvature="0"/>
						<path class="fil9" d="m10914-21c-28 0-50-9-68-27-17-18-26-43-26-73v-6c0-20 4-38 12-54s19-29 33-38 29-14 45-14c27 0 47 9 62 26 15 18 22 43 22 75v15h-139c1 20 6 36 18 49 11 12 26 19 43 19 12 0 23-3 31-8 9-5 16-12 23-20l21 17c-17 26-43 40-77 40zm-4-184c-14 0-26 5-36 16-10 10-16 25-18 43h103v-3c-1-18-6-32-14-42-9-10-20-15-35-15z" style="fill-rule:nonzero;fill:#0f1b07" inkscape:connector-curvature="0"/>
						<path class="fil9" d="m11067-230 1 26c16-20 36-30 61-30 43 0 65 24 66 73v135h-35v-136c0-15-3-26-10-33s-17-11-31-11c-11 0-21 3-30 9s-15 14-20 24v146h-35v-205h33z" style="fill-rule:nonzero;fill:#0f1b07" inkscape:connector-curvature="0"/>
						<path class="fil9" d="m11296-280v50h38v27h-38v127c0 8 2 14 5 19 3 4 9 6 17 6 4 0 10-1 17-2v28c-9 2-18 4-27 4-16 0-27-5-35-14s-12-23-12-40v-127h-37v-27h37v-50h35z" style="fill-rule:nonzero;fill:#0f1b07" inkscape:connector-curvature="0"/>
						<path class="fil9" d="m10113 367c0-13 4-25 11-37 7-11 22-24 42-39-12-15-20-27-25-36-4-9-6-18-6-27 0-21 6-37 19-49 12-12 29-18 50-18 19 0 35 6 47 17s19 25 19 42c0 11-3 21-8 31-6 9-15 19-29 30l-20 15 61 73c9-16 13-35 13-55h32c0 32-8 59-23 80l39 47h-42l-18-22c-9 8-20 15-33 19s-25 7-38 7c-27 0-49-7-65-21s-24-33-24-57zm89 49c19 0 36-7 51-21l-67-81-6 5c-21 16-32 31-32 48 0 15 5 27 14 36 10 9 23 13 40 13zm-32-189c0 12 7 27 22 46l22-16c9-6 14-12 18-17 3-6 5-12 5-20s-3-16-10-21c-6-6-14-8-24-8s-19 3-25 11c-6 7-9 16-9 27z" style="fill-rule:nonzero;fill:#0f1b07" inkscape:connector-curvature="0"/>
						<path class="fil9" d="m9287 798v108h-36v-276h102c30 0 54 8 71 23s26 36 26 61c0 27-8 47-25 62-17 14-41 22-72 22h-65zm0-30h65c19 0 34-5 45-14 10-9 16-22 16-40 0-16-5-30-16-39-10-10-25-15-43-15h-67z" style="fill-rule:nonzero;fill:#0f1b07" inkscape:connector-curvature="0"/>
						<path class="fil9" d="m9589 733c-5-1-11-1-17-1-23 0-39 10-47 29v146h-35v-205h34l1 24c12-18 28-27 49-27 7 0 12 1 16 3v32z" style="fill-rule:nonzero;fill:#0f1b07" inkscape:connector-curvature="0"/>
						<path class="fil9" d="m9608 802c0-20 4-38 12-54s19-28 33-37 30-13 48-13c28 0 51 10 68 29s26 45 26 77v2c0 20-4 38-11 54-8 16-19 28-33 37s-31 13-49 13c-28 0-50-10-68-29-17-19-26-45-26-77zm35 4c0 23 5 41 16 55s25 21 42 21c18 0 32-7 42-21s16-34 16-59c0-23-5-41-16-55s-25-21-43-21c-17 0-31 7-42 21s-16 34-16 59z" style="fill-rule:nonzero;fill:#0f1b07" inkscape:connector-curvature="0"/>
						<path class="fil9" d="m9886 652v50h38v27h-38v127c0 8 2 14 5 19 3 4 9 6 17 6 4 0 10-1 17-2v28c-9 2-18 4-27 4-16 0-27-5-35-14s-12-23-12-40v-127h-37v-27h37v-50h35z" style="fill-rule:nonzero;fill:#0f1b07" inkscape:connector-curvature="0"/>
						<path class="fil9" d="m9952 802c0-20 4-38 12-54s19-28 33-37 30-13 48-13c28 0 51 10 68 29s26 45 26 77v2c0 20-4 38-11 54-8 16-19 28-33 37s-31 13-49 13c-28 0-50-10-68-29-17-19-26-45-26-77zm35 4c0 23 5 41 16 55s25 21 42 21c18 0 32-7 42-21s16-34 16-59c0-23-5-41-16-55s-25-21-43-21c-17 0-31 7-42 21s-16 34-16 59z" style="fill-rule:nonzero;fill:#0f1b07" inkscape:connector-curvature="0"/>
						<path class="fil9" d="m10230 652v50h38v27h-38v127c0 8 2 14 5 19 3 4 9 6 17 6 4 0 10-1 17-2v28c-9 2-18 4-27 4-16 0-27-5-35-14s-12-23-12-40v-127h-37v-27h37v-50h35z" style="fill-rule:nonzero;fill:#0f1b07" inkscape:connector-curvature="0"/>
						<path class="fil9" d="m10377 855 48-154h38l-82 236c-13 34-33 51-61 51l-7-1-13-2v-28l9 1c12 0 21-2 28-7s12-14 16-26l8-21-73-203h38z" style="fill-rule:nonzero;fill:#0f1b07" inkscape:connector-curvature="0"/>
						<path class="fil9" d="m10666 806c0 31-7 56-21 75s-34 29-58 29c-25 0-44-8-59-24v99h-35v-284h32l2 23c14-18 34-27 59-27s44 9 58 28 22 44 22 77v3zm-35-4c0-23-5-41-15-55-10-13-23-20-41-20-21 0-37 9-48 28v98c10 19 27 28 48 28 17 0 30-7 40-20s15-33 15-59z" style="fill-rule:nonzero;fill:#0f1b07" inkscape:connector-curvature="0"/>
						<path class="fil9" d="m10749 906h-35v-205h35zm-38-259c0-6 2-11 5-14 3-4 9-6 15-6 7 0 12 2 16 6s5 9 5 14c0 6-2 10-5 14s-9 6-16 6-12-2-15-6-5-9-5-14z" style="fill-rule:nonzero;fill:#0f1b07" inkscape:connector-curvature="0"/>
						<path class="fil9" d="m10838 701 1 26c16-20 36-30 61-30 43 0 65 24 66 73v135h-35v-136c0-15-3-26-10-33s-17-11-31-11c-11 0-21 3-30 9s-15 14-20 24v146h-35v-205h33z" style="fill-rule:nonzero;fill:#0f1b07" inkscape:connector-curvature="0"/>
						<path class="fil9" d="m11011 802c0-32 7-57 22-76s34-28 59-28 45 9 59 27l2-23h32v200c0 27-8 47-24 63-16 15-37 23-63 23-15 0-29-3-43-9s-25-15-32-26l18-21c15 18 33 28 55 28 17 0 30-5 40-14 10-10 14-23 14-40v-18c-14 16-33 24-57 24s-43-10-58-29-22-46-22-79zm35 4c0 23 5 41 14 54s23 20 40 20c22 0 38-10 49-30v-94c-11-20-27-29-48-29-17 0-30 7-40 20s-14 33-14 59z" style="fill-rule:nonzero;fill:#0f1b07" inkscape:connector-curvature="0"/>
						<polygon class="fil9" points="2872 7827 2836 7827 2836 7551 2872 7551" style="fill-rule:nonzero;fill:#0f1b07"/>
						<path class="fil9" d="m2966 7622 1 23c15-18 35-27 61-27 29 0 48 11 59 33 7-10 16-18 27-24s24-9 39-9c45 0 68 24 69 71v137h-35v-135c0-15-3-26-10-33s-18-11-34-11c-13 0-24 4-32 12-9 8-14 18-15 31v136h-35v-134c0-30-15-45-44-45-23 0-39 10-47 29v150h-35v-205h33z" style="fill-rule:nonzero;fill:#0f1b07" inkscape:connector-curvature="0"/>
						<path class="fil9" d="m3446 7726c0 31-7 56-21 75s-34 29-58 29c-25 0-44-8-59-24v99h-35v-284h32l2 23c14-18 34-27 59-27s44 9 58 28 22 44 22 77v3zm-35-4c0-23-5-41-15-55-10-13-23-20-41-20-21 0-37 9-48 28v98c10 19 27 28 48 28 17 0 30-7 40-20s15-33 15-59z" style="fill-rule:nonzero;fill:#0f1b07" inkscape:connector-curvature="0"/>
						<polygon class="fil9" points="3529 7827 3494 7827 3494 7536 3529 7536" style="fill-rule:nonzero;fill:#0f1b07"/>
						<path class="fil9" d="m3670 7830c-28 0-50-9-68-27-17-18-26-43-26-73v-6c0-20 4-38 12-54s19-29 33-38 29-14 45-14c27 0 47 9 62 26 15 18 22 43 22 75v15h-139c1 20 6 36 18 49 11 12 26 19 43 19 12 0 23-3 31-8 9-5 16-12 23-20l21 17c-17 26-43 40-77 40zm-4-184c-14 0-26 5-36 16-10 10-16 25-18 43h103v-3c-1-18-6-32-14-42-9-10-20-15-35-15z" style="fill-rule:nonzero;fill:#0f1b07" inkscape:connector-curvature="0"/>
						<path class="fil9" d="m3824 7622 1 23c15-18 35-27 61-27 29 0 48 11 59 33 7-10 16-18 27-24s24-9 39-9c45 0 68 24 69 71v137h-35v-135c0-15-3-26-10-33s-18-11-34-11c-13 0-24 4-32 12-9 8-14 18-15 31v136h-35v-134c0-30-15-45-44-45-23 0-39 10-47 29v150h-35v-205h33z" style="fill-rule:nonzero;fill:#0f1b07" inkscape:connector-curvature="0"/>
						<path class="fil9" d="m4216 7830c-28 0-50-9-68-27-17-18-26-43-26-73v-6c0-20 4-38 12-54s19-29 33-38 29-14 45-14c27 0 47 9 62 26 15 18 22 43 22 75v15h-139c1 20 6 36 18 49 11 12 26 19 43 19 12 0 23-3 31-8 9-5 16-12 23-20l21 17c-17 26-43 40-77 40zm-4-184c-14 0-26 5-36 16-10 10-16 25-18 43h103v-3c-1-18-6-32-14-42-9-10-20-15-35-15z" style="fill-rule:nonzero;fill:#0f1b07" inkscape:connector-curvature="0"/>
						<path class="fil9" d="m4370 7622 1 26c16-20 36-30 61-30 43 0 65 24 66 73v135h-35v-136c0-15-3-26-10-33s-17-11-31-11c-11 0-21 3-30 9s-15 14-20 24v146h-35v-205h33z" style="fill-rule:nonzero;fill:#0f1b07" inkscape:connector-curvature="0"/>
						<path class="fil9" d="m4598 7572v50h38v27h-38v127c0 8 2 14 5 19 3 4 9 6 17 6 4 0 10-1 17-2v28c-9 2-18 4-27 4-16 0-27-5-35-14s-12-23-12-40v-127h-37v-27h37v-50h35z" style="fill-rule:nonzero;fill:#0f1b07" inkscape:connector-curvature="0"/>
						<path class="fil9" d="m4804 7827c-2-4-4-11-5-22-16 17-36 25-58 25-20 0-37-6-50-17s-19-26-19-43c0-21 8-38 24-50s39-18 68-18h34v-16c0-12-4-22-11-29s-18-11-32-11c-13 0-23 3-32 9-8 6-13 14-13 23h-35c0-10 4-20 11-30s17-17 30-23c12-6 26-8 41-8 24 0 42 6 55 18s20 28 21 49v94c0 19 2 34 7 45v3h-37zm-58-26c11 0 21-3 31-9s17-13 21-22v-42h-27c-43 0-64 13-64 38 0 11 4 20 11 26s17 9 28 9z" style="fill-rule:nonzero;fill:#0f1b07" inkscape:connector-curvature="0"/>
						<path class="fil9" d="m4936 7572v50h38v27h-38v127c0 8 2 14 5 19 3 4 9 6 17 6 4 0 10-1 17-2v28c-9 2-18 4-27 4-16 0-27-5-35-14s-12-23-12-40v-127h-37v-27h37v-50h35z" style="fill-rule:nonzero;fill:#0f1b07" inkscape:connector-curvature="0"/>
						<path class="fil9" d="m5053 7827h-35v-205h35zm-38-259c0-6 2-11 5-14 3-4 9-6 15-6 7 0 12 2 16 6s5 9 5 14c0 6-2 10-5 14s-9 6-16 6-12-2-15-6-5-9-5-14z" style="fill-rule:nonzero;fill:#0f1b07" inkscape:connector-curvature="0"/>
						<path class="fil9" d="m5100 7722c0-20 4-38 12-54s19-28 33-37 30-13 48-13c28 0 51 10 68 29s26 45 26 77v2c0 20-4 38-11 54-8 16-19 28-33 37s-31 13-49 13c-28 0-50-10-68-29-17-19-26-45-26-77zm35 4c0 23 5 41 16 55s25 21 42 21c18 0 32-7 42-21s16-34 16-59c0-23-5-41-16-55s-25-21-43-21c-17 0-31 7-42 21s-16 34-16 59z" style="fill-rule:nonzero;fill:#0f1b07" inkscape:connector-curvature="0"/>
						<path class="fil9" d="m5364 7622 1 26c16-20 36-30 61-30 43 0 65 24 66 73v135h-35v-136c0-15-3-26-10-33s-17-11-31-11c-11 0-21 3-30 9s-15 14-20 24v146h-35v-205h33z" style="fill-rule:nonzero;fill:#0f1b07" inkscape:connector-curvature="0"/>
						<path class="fil9" d="m4058 8218c0-13 4-25 11-37 7-11 22-24 42-39-12-15-20-27-25-36-4-9-6-18-6-27 0-21 6-37 19-49 12-12 29-18 50-18 19 0 35 6 47 17s19 25 19 42c0 11-3 21-8 31-6 9-15 19-29 30l-20 15 61 73c9-16 13-35 13-55h32c0 32-8 59-23 80l39 47h-42l-18-22c-9 8-20 15-33 19s-25 7-38 7c-27 0-49-7-65-21s-24-33-24-57zm89 49c19 0 36-7 51-21l-67-81-6 5c-21 16-32 31-32 48 0 15 5 27 14 36 10 9 23 13 40 13zm-32-189c0 12 7 27 22 46l22-16c9-6 14-12 18-17 3-6 5-12 5-20s-3-16-10-21c-6-6-14-8-24-8s-19 3-25 11c-6 7-9 16-9 27z" style="fill-rule:nonzero;fill:#0f1b07" inkscape:connector-curvature="0"/>
						<path class="fil9" d="m3513 8758v-276h78c24 0 45 5 64 16 18 11 33 26 43 45 10 20 15 42 15 67v18c0 26-5 49-15 68-10 20-24 35-43 45s-40 16-65 16h-76zm36-246v216h38c28 0 50-9 66-26s23-42 23-74v-16c0-31-7-56-22-73s-36-26-63-26h-42z" style="fill-rule:nonzero;fill:#0f1b07" inkscape:connector-curvature="0"/>
						<path class="fil9" d="m3847 8762c-28 0-50-9-68-27-17-18-26-43-26-73v-6c0-20 4-38 12-54s19-29 33-38 29-14 45-14c27 0 47 9 62 26 15 18 22 43 22 75v15h-139c1 20 6 36 18 49 11 12 26 19 43 19 12 0 23-3 31-8 9-5 16-12 23-20l21 17c-17 26-43 40-77 40zm-4-184c-14 0-26 5-36 16-10 10-16 25-18 43h103v-3c-1-18-6-32-14-42-9-10-20-15-35-15z" style="fill-rule:nonzero;fill:#0f1b07" inkscape:connector-curvature="0"/>
						<polygon class="fil9" points="4006 8758 3970 8758 3970 8467 4006 8467" style="fill-rule:nonzero;fill:#0f1b07"/>
						<path class="fil9" d="m4100 8758h-35v-205h35zm-38-259c0-6 2-11 5-14 3-4 9-6 15-6 7 0 12 2 16 6s5 9 5 14c0 6-2 10-5 14s-9 6-16 6-12-2-15-6-5-9-5-14z" style="fill-rule:nonzero;fill:#0f1b07" inkscape:connector-curvature="0"/>
						<polygon class="fil9" points="4274 8553 4310 8553 4236 8758 4210 8758 4135 8553 4171 8553 4223 8710" style="fill-rule:nonzero;fill:#0f1b07"/>
						<path class="fil9" d="m4426 8762c-28 0-50-9-68-27-17-18-26-43-26-73v-6c0-20 4-38 12-54s19-29 33-38 29-14 45-14c27 0 47 9 62 26 15 18 22 43 22 75v15h-139c1 20 6 36 18 49 11 12 26 19 43 19 12 0 23-3 31-8 9-5 16-12 23-20l21 17c-17 26-43 40-77 40zm-4-184c-14 0-26 5-36 16-10 10-16 25-18 43h103v-3c-1-18-6-32-14-42-9-10-20-15-35-15z" style="fill-rule:nonzero;fill:#0f1b07" inkscape:connector-curvature="0"/>
						<path class="fil9" d="m4646 8584c-5-1-11-1-17-1-23 0-39 10-47 29v146h-35v-205h34l1 24c12-18 28-27 49-27 7 0 12 1 16 3v32z" style="fill-rule:nonzero;fill:#0f1b07" inkscape:connector-curvature="0"/>
						<path class="fil9" d="m4749 8707 48-154h38l-82 236c-13 34-33 51-61 51l-7-1-13-2v-28l9 1c12 0 21-2 28-7s12-14 16-26l8-21-73-203h38z" style="fill-rule:nonzero;fill:#0f1b07" inkscape:connector-curvature="0"/>
						<rect class="fil10" x="10731" y="4327" width="2858" height="4075" style="fill:#5c821a"/>
						<path class="fil11" d="m11815 6509v751h751v-751zm560 493c29 0 54-16 68-39l20 35c-21 25-53 41-88 41-64 0-115-52-115-115 0-64 52-115 115-115 35 0 67 16 88 41l-20 35c-14-23-39-39-68-39-43 0-78 35-78 78s35 78 78 78zm-289-344h194v39h-74v391l214-1v39h-260v-430h-74v-39zm-10 38h-41-16c-3 0-5 1-8 1-2 0-4 1-6 1-2 1-4 1-7 2-2 1-5 2-7 3s-4 2-6 4c-2 1-4 2-5 4-2 1-3 2-4 3s-3 2-4 4c-2 2-3 4-5 6s-3 5-5 7c-2 3-3 5-5 9-2 3-3 7-4 11s-2 8-2 11c-1 4-1 7-1 11s0 8 1 12 1 8 3 11c1 4 3 8 4 10 1 3 2 4 3 7 1 2 3 5 5 8s4 5 6 7 4 4 6 5 3 3 5 4 4 2 6 4c2 1 4 2 5 3l6 3c2 1 4 1 6 2s4 1 7 2c2 0 5 1 7 1h7c2 0 5 0 8-1 3 0 6-1 8-1 2-1 4-1 6-2s4-1 6-2l6-3c2-1 4-2 6-4 2-1 4-2 5-4 2-1 4-3 5-5l5-5c1-2 3-3 4-4s2-3 3-3c1-1 1-1 1-2 0 0 0-1 5 5 4 5 12 16 16 22 4 5 4 5 4 6l-2 2c-1 1-2 3-3 4l-3 3c-1 1-2 2-4 3-1 1-2 2-4 3-1 1-3 2-5 4-2 1-3 2-4 3s-2 2-4 2c-1 1-3 2-4 2-1 1-3 2-5 3l-6 3c-2 1-4 2-6 2-2 1-4 1-6 2s-4 1-6 2-4 1-7 1c-2 0-5 1-7 1s-5 1-7 1h-7-9c-3 0-6-1-9-1s-6-1-9-2-6-2-9-3-5-2-7-3-5-2-7-3l-6-3c-2-1-5-3-7-5-3-2-6-4-8-6-3-2-5-4-7-6l-7-7c-2-3-5-6-7-8s-3-4-5-7-3-6-5-8c-1-3-3-5-4-8l-6-18c-1-3-1-5-2-8 0-3-1-6-1-8 0-3 0-5-1-8v-7-6c0-2 0-4 1-6 0-2 1-5 1-7 1-3 1-5 2-8s2-5 2-8c1-2 2-5 3-7s2-4 3-7c1-2 2-5 4-7 1-2 3-4 4-6s3-4 4-6c2-2 3-4 5-6l10-10c2-2 4-4 6-5 2-2 4-3 7-5 2-2 5-3 7-5 2-1 5-3 7-4s5-2 7-3c3-1 6-2 9-3s5-2 8-2c2-1 4-1 7-1 2 0 5-1 8-1s5 0 7-1h5 5 6 7 6 7 6 6 7 7 1v2 13 19 4h-10z" style="fill-rule:nonzero;fill:#ffffff" inkscape:connector-curvature="0"/>
						<path class="fil11" d="m12021 7541c-15 13-34 19-57 19-22 0-41-7-55-21-15-14-23-33-23-57 0-25 8-45 24-60 15-14 34-21 57-21s40 6 52 18l-15 21c-11-8-23-12-36-12-14 0-26 5-35 14-10 9-15 22-15 38s4 29 13 38c9 10 20 14 34 14 12 0 26-4 40-13l14 21z" style="fill-rule:nonzero;fill:#ffffff" inkscape:connector-curvature="0"/>
						<path class="fil11" d="m12190 7480c0 24-7 43-22 58s-33 22-56 22-42-7-56-22c-15-15-22-34-22-58 0-23 7-42 22-57 14-15 33-22 57-22 23 0 42 7 56 22s22 34 22 57zm-34 0c0-15-4-28-13-38-8-10-19-15-33-15-13 0-23 5-31 15s-12 23-12 39 4 28 13 38 19 15 32 15c14 0 25-5 33-16 7-10 11-23 11-39z" style="fill-rule:nonzero;fill:#ffffff" inkscape:connector-curvature="0"/>
						<polygon class="fil11" points="12235 7405 12269 7405 12311 7514 12352 7405 12386 7405 12403 7557 12371 7557 12362 7454 12323 7557 12297 7557 12258 7454 12249 7557 12219 7557" style="fill-rule:nonzero;fill:#ffffff"/>
						<polygon class="fil11" points="12452 7405 12486 7405 12528 7514 12569 7405 12603 7405 12620 7557 12588 7557 12578 7454 12540 7557 12513 7557 12474 7454 12465 7557 12436 7557" style="fill-rule:nonzero;fill:#ffffff"/>
						<path class="fil11" d="m12777 7484c0 17-1 30-3 37-2 9-6 17-12 23-11 11-27 17-48 17s-37-5-48-16c-7-7-11-15-13-23-1-5-2-13-2-25v-91h33v95c0 12 3 21 8 26s13 8 23 8c9 0 16-2 21-7s8-13 8-24v-97h32v79z" style="fill-rule:nonzero;fill:#ffffff" inkscape:connector-curvature="0"/>
						<polygon class="fil11" points="12910 7405 12941 7405 12941 7557 12912 7557 12845 7454 12846 7557 12816 7557 12816 7405 12846 7405 12911 7506" style="fill-rule:nonzero;fill:#ffffff"/>
						<polygon class="fil11" points="13014 7557 12981 7557 12981 7405 13014 7405" style="fill-rule:nonzero;fill:#ffffff"/>
						<polygon class="fil11" points="13165 7430 13120 7430 13120 7557 13087 7557 13087 7430 13042 7430 13042 7405 13165 7405" style="fill-rule:nonzero;fill:#ffffff"/>
						<polygon class="fil11" points="13287 7405 13318 7405 13267 7496 13267 7557 13234 7557 13234 7496 13183 7405 13217 7405 13252 7470" style="fill-rule:nonzero;fill:#ffffff"/>
						<path class="fil11" d="m11677 7770c-1 2-4 3-9 5-7 3-14 4-22 4-13 0-23-4-31-12-8-9-13-20-13-34 0-15 4-27 13-35 8-8 19-13 32-13 8 0 14 1 20 4 4 2 6 3 8 5l-5 8c-7-4-14-6-22-6-10 0-17 3-24 10s-10 16-10 27 3 20 9 27 14 10 24 10c7 0 15-2 24-7l5 8z" style="fill-rule:nonzero;fill:#ffffff" inkscape:connector-curvature="0"/>
						<path class="fil11" d="m11807 7732c0 14-4 26-12 35s-18 13-30 13-22-4-30-13-12-20-12-34 4-25 12-34 18-13 30-13 22 4 30 13 12 20 12 34zm-13 0c0-11-3-20-8-26-5-7-13-10-21-10-9 0-16 3-21 10s-8 16-8 27 3 20 8 27c6 7 13 10 21 10 9 0 16-4 22-11 5-7 7-16 7-27z" style="fill-rule:nonzero;fill:#ffffff" inkscape:connector-curvature="0"/>
						<polygon class="fil11" points="11921 7687 11932 7687 11932 7778 11920 7778 11877 7706 11877 7778 11866 7778 11866 7687 11878 7687 11921 7760" style="fill-rule:nonzero;fill:#ffffff"/>
						<path class="fil11" d="m12047 7754c0 8-3 14-8 19s-13 8-22 8c-7 0-13-2-20-5-4-2-7-4-8-5l6-8c8 5 15 8 22 8 5 0 10-1 13-4s5-6 5-11c0-4-2-8-7-12-2-2-7-4-14-8s-12-7-15-10c-4-4-6-9-6-15 0-7 3-13 8-18s12-7 21-7c7 0 13 1 19 4 3 2 6 3 7 5l-6 8c-6-5-12-7-19-7-5 0-9 1-12 4-3 2-5 6-5 10s2 7 5 9c1 1 5 3 12 7 8 4 14 7 16 9 7 5 10 12 10 20z" style="fill-rule:nonzero;fill:#ffffff" inkscape:connector-curvature="0"/>
						<path class="fil11" d="m12172 7734c0 11 0 18-1 22-1 7-3 12-7 16-6 6-14 9-25 9s-19-3-25-9c-4-4-6-8-7-14-1-3-1-8-1-14v-56h12v57c0 5 0 8 1 10 1 4 2 7 5 9 4 4 9 6 16 6 6 0 11-2 15-6 3-3 4-6 5-11 0-2 1-8 1-18v-48h12v46z" style="fill-rule:nonzero;fill:#ffffff" inkscape:connector-curvature="0"/>
						<polygon class="fil11" points="12234 7687 12246 7687 12246 7768 12284 7768 12284 7778 12234 7778" style="fill-rule:nonzero;fill:#ffffff"/>
						<polygon class="fil11" points="12385 7697 12358 7697 12358 7778 12346 7778 12346 7697 12319 7697 12319 7687 12385 7687" style="fill-rule:nonzero;fill:#ffffff"/>
						<polygon class="fil11" points="12453 7778 12441 7778 12441 7687 12453 7687" style="fill-rule:nonzero;fill:#ffffff"/>
						<polygon class="fil11" points="12571 7687 12582 7687 12582 7778 12570 7778 12527 7706 12527 7778 12516 7778 12516 7687 12528 7687 12571 7760" style="fill-rule:nonzero;fill:#ffffff"/>
						<path class="fil11" d="m12717 7772c-2 1-5 3-9 5-7 3-15 4-23 4-13 0-23-4-31-12-8-9-13-20-13-34 0-15 4-27 13-35 8-8 19-13 32-13 8 0 14 1 20 4 4 2 6 3 8 5l-5 8c-6-4-13-6-22-6-10 0-17 3-24 10s-10 16-10 27 3 20 9 27 14 10 24 10c7 0 13-1 18-4v-23h-20v-10h31v38z" style="fill-rule:nonzero;fill:#ffffff" inkscape:connector-curvature="0"/>
						<polygon class="fil11" points="11079 7405 11079 7531 11169 7531 11169 7557 11047 7557 11047 7405" style="fill-rule:nonzero;fill:#ffffff"/>
						<polygon class="fil11" points="11239 7490 11239 7531 11327 7531 11326 7557 11206 7557 11206 7405 11327 7405 11327 7430 11239 7430 11239 7464 11325 7464 11325 7490" style="fill-rule:nonzero;fill:#ffffff"/>
						<polygon class="fil11" points="11409 7490 11409 7531 11497 7531 11497 7557 11377 7557 11377 7405 11497 7405 11497 7431 11409 7430 11409 7464 11496 7464 11496 7490" style="fill-rule:nonzero;fill:#ffffff"/>
						<path class="fil11" d="m11524 7404h54c12 0 21 1 28 3 9 3 16 7 22 14s11 15 14 25 5 22 5 36c0 13-2 23-5 32-4 11-9 20-16 27-5 5-12 9-21 12-7 2-15 3-26 3h-55zm32 26v101h20c8 0 14-1 18-1 5-1 9-3 12-6s6-8 8-15 3-16 3-28-1-21-3-27-5-11-8-15c-4-4-8-6-14-7-4-1-12-1-24-1h-11z" style="fill-rule:nonzero;fill:#ffffff" inkscape:connector-curvature="0"/>
						<path class="fil11" d="m11675 7508 24-4c1 10 5 17 11 23 6 5 15 8 26 8s20-2 25-7 8-10 8-16-2-10-7-13c-3-2-12-5-25-8-18-5-31-8-38-12-7-3-12-8-16-14s-5-12-5-19 1-13 4-18c3-6 7-10 12-14 4-3 9-5 16-7s14-3 21-3c11 0 21 2 30 5s15 8 19 13c4 6 7 13 8 23l-24 3c-1-8-4-14-9-18s-13-6-22-6c-11 0-19 2-24 6s-7 8-7 13c0 3 1 6 3 9s5 5 9 7c2 1 10 3 22 6 17 5 30 8 36 11 7 3 12 7 16 13s6 13 6 21-2 16-7 23-12 13-21 17-19 6-31 6c-19 0-33-4-43-12s-16-19-19-35z" style="fill-rule:nonzero;fill:#ffffff" inkscape:connector-curvature="0"/>
						<polygon class="fil12" points="11262 4915 11346 4915 11346 4937 11262 4937 11262 5025 11235 5025 11235 4825 11360 4825 11360 4846 11262 4846" style="fill-rule:nonzero;fill:#ffffff"/>
						<polygon class="fil12" points="11420 5025 11393 5025 11393 4825 11420 4825" style="fill-rule:nonzero;fill:#ffffff"/>
						<polygon class="fil12" points="11596 4825 11622 4825 11622 5025 11596 5025 11495 4871 11495 5025 11468 5025 11468 4825 11495 4825 11596 4980" style="fill-rule:nonzero;fill:#ffffff"/>
						<path class="fil12" d="m11782 4973h-84l-19 52h-27l77-201h23l77 201h-27l-19-52zm-76-22h68l-34-94z" style="fill-rule:nonzero;fill:#ffffff" inkscape:connector-curvature="0"/>
						<polygon class="fil12" points="11977 5025 11856 5025 11856 4825 11882 4825 11882 5003 11977 5003" style="fill-rule:nonzero;fill:#ffffff"/>
						<path class="fil12" d="m12151 4944h-47v81h-27v-201h66c23 0 40 5 52 15s18 25 18 45c0 13-3 23-10 33-7 9-16 16-28 21l47 85v2h-28l-44-81zm-47-22h41c13 0 24-3 31-10 8-7 12-16 12-27 0-12-4-22-11-29s-18-10-32-10h-41z" style="fill-rule:nonzero;fill:#ffffff" inkscape:connector-curvature="0"/>
						<polygon class="fil12" points="12377 4846 12278 4846 12278 4911 12365 4911 12365 4933 12278 4933 12278 5003 12379 5003 12379 5025 12251 5025 12251 4825 12377 4825" style="fill-rule:nonzero;fill:#ffffff"/>
						<path class="fil12" d="m12438 4947v78h-26v-201h74c22 0 39 6 52 17 12 11 19 26 19 45s-6 34-18 45-30 16-52 16h-47zm0-22h48c14 0 25-3 33-10s11-16 11-29c0-12-4-21-11-29-8-7-18-11-31-11h-49v79z" style="fill-rule:nonzero;fill:#ffffff" inkscape:connector-curvature="0"/>
						<path class="fil12" d="m12744 4931c0 20-3 37-10 52s-16 26-28 34-26 12-42 12-30-4-42-12-22-19-28-33c-7-14-10-31-10-50v-14c0-19 3-36 10-51s16-26 28-34 26-12 42-12 30 4 42 12 22 19 28 34c7 15 10 32 10 52v13zm-26-13c0-24-5-42-14-55-10-13-23-19-40-19s-30 6-40 19-15 30-15 53v15c0 23 5 41 15 54s23 20 40 20 30-6 40-19c9-12 14-30 14-53z" style="fill-rule:nonzero;fill:#ffffff" inkscape:connector-curvature="0"/>
						<path class="fil12" d="m12857 4944h-47v81h-27v-201h66c23 0 40 5 52 15s18 25 18 45c0 13-3 23-10 33-7 9-16 16-28 21l47 85v2h-28l-44-81zm-47-22h41c13 0 24-3 31-10 8-7 12-16 12-27 0-12-4-22-11-29s-18-10-32-10h-41z" style="fill-rule:nonzero;fill:#ffffff" inkscape:connector-curvature="0"/>
						<polygon class="fil12" points="13085 4846 13021 4846 13021 5025 12994 5025 12994 4846 12930 4846 12930 4825 13085 4825" style="fill-rule:nonzero;fill:#ffffff"/>
						<path class="fil13" d="m2925 2205h-20c-10 0-19-8-19-19v-1c0-24-20-44-44-44h-1c-24 0-44 20-44 44v1c0 10-8 19-19 19h-20c-21 0-38 17-38 38v1c0 21 17 38 38 38h165c21 0 38-17 38-38v-1c0-21-17-38-38-38zm-83 0c-11 0-19-9-19-19s9-19 19-19 19 9 19 19c0 11-9 19-19 19zm85 735h-319c-28 0-51-23-51-51v-608c0-28 23-51 38-51h103c-1 4-1 9-1 13 0 35 28 63 63 63h165c35 0 63-28 63-64 0-4 0-8-1-12h77c41 0 63 23 63 51v381c-4 0-8-1-13-1-18 0-34 2-51 7v-298h-443v507h292c1 22 6 44 14 63zm188-241c-91 0-165 74-165 165s74 165 165 165 165-74 165-165-74-165-165-165zm108 131-101 114c-5 6-12 8-19 8-6 0-11-2-16-6l-63-51c-11-9-13-25-4-36s25-13 36-4l45 36 85-96c9-10 25-11 36-2 10 9 11 25 2 36zm-222-245h-203c-7 0-13-6-13-13v-13c0-7 6-13 13-13h203c7 0 13 6 13 13v13c0 7-6 13-13 13zm0-114h-203c-7 0-13-6-13-13v-13c0-7 6-13 13-13h203c7 0 13 6 13 13v13c0 7-6 13-13 13zm-63 215h-139c-7 0-13-6-13-13v-13c0-7 6-13 13-13h139c7 0 13 6 13 13v13c0 7-6 13-13 13zm-25 114h-114c-7 0-13-6-13-13v-13c0-7 6-13 13-13h114c7 0 13 6 13 13v13c0 7-6 13-13 13zm-151-376-47 53c-2 3-6 4-9 4s-5-1-7-3l-29-23c-5-4-6-11-2-16s11-6 16-2l21 16 39-44c4-5 12-5 16-1 5 4 5 12 1 16zm0 113-47 52c-2 3-6 4-9 4s-5-1-7-3l-29-23c-5-4-6-11-2-16s11-6 16-2l21 16 39-44c4-5 12-5 16-1 5 4 5 12 1 16zm0 108-47 52c-2 3-6 4-9 4s-5-1-7-3l-29-23c-5-4-6-11-2-16s11-6 16-2l21 16 39-44c4-5 12-5 16-1 5 4 5 12 1 16zm0 109-47 52c-2 3-6 4-9 4s-5-1-7-3l-29-23c-5-4-6-11-2-16s11-6 16-2l21 16 39-44c4-5 12-5 16-1 5 4 5 12 1 16z" style="fill:#0f1b07" inkscape:connector-curvature="0"/>
						<path class="fil13" d="m3901 6473c19 4 56 2 78 2 9 0 9-14 10-22h-92c2 6 3 14 4 20zm-8-45h100c1-15 8-37 13-50 3-9 5-15 9-24 20-57 66-87 36-163-10-24-34-49-58-61-57-27-124-4-155 54-22 42-12 84 11 120 20 32 35 84 45 123zm392-821c-1 2-3 3-5 6-12 19-19 40-24 62-8 0-16 3-23 4-22 4-18-4-18 39 9 0 20 3 30 5 22 4 8 5 27 47 12 27 21 16 2 41-5 7-7 10-11 17l25 24c12-8 22-16 34-24 40 27 53 22 67 29 3 11 7 30 8 41h35c17-73-3-22 65-62l6-4 1-1c4-3 1-1 4-3l35 25c9-6 12-12 18-18 4-4 2 0 6-6-2-8-7-11-11-18-16-23-14-12 0-40 4-9 8-17 11-26 6-20 1-19 14-21 7-1 23-5 31-5 0-43 3-35-18-39-7-1-15-4-23-4-2-18-13-41-20-55-14-26 7-23 14-49-3-5-7-7-10-12-4-5-7-8-12-12-12 6-22 15-33 22-9-2-37-24-69-27-1-11-6-30-8-41h-35c-1 11-6 30-8 41-12 1-26 7-36 11-38 16-19 26-68-7l-24 25 24 36zm219-63 39-27 27 24c6 6 22 21 28 23-1 14-22 31-24 42-1 7 16 32 17 46 10 0 18 3 28 4 15 2 19-2 19 14v66c-14 1-32 7-47 8-4 16-11 31-18 45 6 11 22 29 25 39l-53 54c-46-33-25-28-67-12-19 7-15 4-19 24-2 9-3 18-5 26-16 4-15 0-31 0-10 0-39 4-45-2-2-2-4-15-4-20-1-5-3-16-4-23-8-2-15-5-23-7-28-9-14-17-40 1-7 5-13 9-20 13-15-10-38-45-53-49 1-13 22-33 22-39 0-11-11-24-14-35-2-4-2-8-4-12-12-3-33-7-45-8 0-13-2-19-2-29h-170c-41 0-72 13-100 39l-7 7c-33 35-43 92-25 136 17 40 50 72 96 82 34 7 296 3 352 3 72 0 127-1 175 62 49 65 40 151-17 208-25 25-61 45-111 44h-313c-2 10-52 88-53 137h14c0 27 6 22-20 22-1 7-1 12-2 20-1 7-3 11-7 16-16 19-68 13-91 13-31 0-39-19-41-47-9 0-10-2-20-2v-22h14c-2-23-24-76-33-94-14-28-33-54-33-96 0-32 9-56 24-80 3-4 4-7 8-11 62-71 161-69 216-3 34 41 35 71 31 120h278c45 0 77 0 111-28 86-70 54-212-59-232-6-1-29-3-34-3-10 0-7 2-16 2-7 0-8-2-19-2-10 0-13 2-21 2s-10-2-20-2-13 2-21 2-10-2-20-2-13 2-21 2-10-2-20-2-13 2-21 2-10-2-20-2-13 2-21 2-10-2-20-2-13 2-21 2-10-2-20-2-13 2-21 2c-13 0-14-2-39 0-9 1-10-2-20-2-42-1-66-6-100-31-33-25-62-69-62-114 0-57 11-88 51-127 24-24 65-42 113-42h174c-4-30-5-24 33-30 18-3 12-8 20-27 13-31 14-15-15-57 12-18 39-37 51-55 14 8 26 18 39 27 12-6 29-17 45-18 1-14 7-32 8-47h78c0 11 2 17 4 25 2 12-1 17 7 22 7 4 23 8 31 12 4 2 6 4 9 7z" style="fill:#0f1b07" inkscape:connector-curvature="0"/>
						<path class="fil13" d="m4416 5791c44 0 90-40 90-84 0-29-6-56-28-76-63-58-156-9-156 62 0 31 11 53 27 69 10 10 14 13 27 20 9 4 28 9 40 9zm116-92c0 37-18 67-42 88-8 8-17 12-28 17-42 20-97 9-130-24-60-60-37-165 44-192 29-10 58-9 86 4 42 20 70 61 70 108z" style="fill:#0f1b07" inkscape:connector-curvature="0"/>
						<path class="fil13" d="m4124 6197c-10 1-16 5-27 6-2-8-4-15-6-22 8-4 18-4 27-8 2 8 6 17 6 25z" style="fill:#0f1b07" inkscape:connector-curvature="0"/>
						<path class="fil13" d="m3840 6358-18 17c-8-5-12-8-17-15 6-8 10-15 18-20z" style="fill:#0f1b07" inkscape:connector-curvature="0"/>
						<path class="fil13" d="m3911 6081c-8 2-15 5-25 6-1-11-5-17-6-27 7-1 17-4 22-6 3 7 5 19 8 27z" style="fill:#0f1b07" inkscape:connector-curvature="0"/>
						<path class="fil13" d="m3999 6058c-1 8-4 19-6 27-6-1-18-4-22-6 0-11 4-18 6-27 5 2 16 5 22 6z" style="fill:#0f1b07" inkscape:connector-curvature="0"/>
						<path class="fil13" d="m3793 6289c-9 2-16 6-27 6 0-11-4-11-4-22 9-2 16-6 27-6 0 11 4 11 4 22z" style="fill:#0f1b07" inkscape:connector-curvature="0"/>
						<path class="fil13" d="m3793 6185c-1 6-4 18-6 22-8-2-16-4-25-6 0-10 2-15 4-22 10 0 20 3 27 6z" style="fill:#0f1b07" inkscape:connector-curvature="0"/>
						<polygon class="fil13" points="4079 6111 4061 6130 4044 6114 4063 6096" style="fill:#0f1b07"/>
						<polygon class="fil13" points="4083 6356 4068 6373 4048 6353 4064 6338" style="fill:#0f1b07"/>
						<path class="fil13" d="m3837 6116-14 18c-3-2-19-16-20-18l16-16 18 17z" style="fill:#0f1b07" inkscape:connector-curvature="0"/>
						<path class="fil13" d="m9955 2796v-254c44 0 90-1 134 0 16 1 81 27 100 34 134 48 79 39 228 39 16 0 50-2 62 4 15 7 24 25 17 47-10 31-67 23-111 23-33 0-104-4-133 1-33 5-60 34-62 71h36c3-47 49-37 93-36h131c35 0 70-18 99-30l187-73c27-10 75-36 97-13 11 12 13 36-1 46l-123 74c-45 26-300 179-343 178-69-2-317-108-347-109h-66zm925-174v22c-3 17-13 33-31 45l-403 227c-46 23-66 33-113 21-51-13-168-50-218-70-12-5-25-9-37-13-26-9-46-20-75-20h-48v36h-236v-36h200v-326h-200v-36h236v36c37-1 76 0 113 0 24 0 29-2 51 6l125 45c38 14 47 21 92 21v-120c0-25 2-15-21-38-8-8-23-25-32-30-14 7-21 14-39 20-53 17-95-8-124-46-45-59-37-119-38-202 84 1 144-7 202 38 20 15 42 37 50 71 9 42-10 68-23 93 5 8 35 39 43 43 8-5 39-36 43-43-13-25-33-52-23-93 8-33 30-56 50-70 62-47 116-37 202-38-1 85 8 142-38 202-29 38-70 62-122 47-20-6-27-13-41-20-9 5-34 32-45 43-9 9-7 9-7 25 1 40 0 80 0 120 29 0 95-4 117 6 27 12 48 36 46 76l225-85c42-17 69-26 105 14 8 9 13 20 15 33zm-762-424c58 0 111-5 156 37 31 29 32 60 13 104-12-6-35-33-46-44l-25 26c11 11 38 34 44 46-44 19-74 19-104-13-33-35-37-74-37-126v-29zm303 141c-24-54-11-88 26-115 38-27 88-26 142-26 1 54 2 103-26 142-27 38-61 50-115 26 8-17 36-31 44-49-8-6-16-14-22-22-18 8-32 36-49 44z" style="fill:#0f1b07" inkscape:connector-curvature="0"/>
						<polygon class="fil10" points="9719 2833 9918 2833 9918 2506 9719 2506" style="fill:#5c821a"/>
						<path class="fil10" d="m10118 2227c0 52 4 91 37 126 29 31 60 32 104 13-6-12-33-35-44-46l25-26c11 11 35 38 46 44 19-44 19-74-13-104-44-42-97-37-156-37v29z" style="fill:#5c821a" inkscape:connector-curvature="0"/>
						<path class="fil14" d="m10421 2339c17-8 31-36 49-44 6 8 14 16 22 22-8 18-36 32-44 49 54 24 88 12 115-26 28-39 26-88 26-142-54-1-104-2-142 26-38 27-50 61-26 115z" style="fill:#ffffff" inkscape:connector-curvature="0"/>
				</g>
		</g>
</svg>
