<?xml version="1.0" encoding="utf-8"?>
<!-- Generator: Adobe Illustrator 24.1.0, SVG Export Plug-In . SVG Version: 6.00 Build 0)  -->
<svg version="1.1" id="Layer_1" xmlns="http://www.w3.org/2000/svg" xmlns:xlink="http://www.w3.org/1999/xlink" x="0px" y="0px"
	 viewBox="0 0 27 27" style="enable-background:new 0 0 27 27;" xml:space="preserve">
<style type="text/css">
	.st0{fill:#1CB954;}
	.st1{fill:#FFFFFF;}
</style>
<g>
	<path class="st0" d="M25.17,26.37H1.83c-0.86,0-1.57-0.71-1.57-1.57V2.21c0-0.86,0.71-1.57,1.57-1.57h23.33
		c0.86,0,1.57,0.71,1.57,1.57v22.59C26.74,25.66,26.03,26.37,25.17,26.37z"/>
	<g>
		<path class="st1" d="M5.13,10.53H8.8v11.81H5.13V10.53z M6.96,4.66c1.17,0,2.13,0.95,2.13,2.13c0,1.17-0.95,2.13-2.13,2.13
			c-1.18,0-2.13-0.95-2.13-2.13C4.83,5.62,5.78,4.66,6.96,4.66"/>
		<path class="st1" d="M11.1,10.53h3.52v1.62h0.05c0.49-0.93,1.69-1.91,3.47-1.91c3.72,0,4.4,2.44,4.4,5.62v6.48h-3.67V16.6
			c0-1.37-0.02-3.13-1.91-3.13c-1.91,0-2.2,1.49-2.2,3.03v5.84H11.1V10.53z"/>
	</g>
</g>
</svg>
