<?xml version="1.0" encoding="utf-8"?>
<!-- Generator: Adobe Illustrator 24.1.0, SVG Export Plug-In . SVG Version: 6.00 Build 0)  -->
<svg version="1.1" id="Layer_1" xmlns="http://www.w3.org/2000/svg" xmlns:xlink="http://www.w3.org/1999/xlink" x="0px" y="0px"
	 viewBox="0 0 27 27" style="enable-background:new 0 0 27 27;" xml:space="preserve">
<style type="text/css">
	.st0{fill:#301B1A;}
	.st1{fill:#FFFFFF;}
</style>
<g>
	<path class="st0" d="M25.22,26.42H1.78c-0.86,0-1.57-0.71-1.57-1.57V2.16c0-0.86,0.71-1.57,1.57-1.57h23.44
		c0.86,0,1.57,0.71,1.57,1.57v22.69C26.79,25.71,26.08,26.42,25.22,26.42z"/>
	<g>
		<g>
			<path class="st1" d="M6.16,19.18c0-3.79,0-7.58,0-11.38c0.01-0.03,0.02-0.06,0.03-0.09C6.34,7,6.75,6.52,7.43,6.26
				c0.12-0.04,0.24-0.07,0.37-0.1c3.79,0,7.58,0,11.38,0c0.04,0.01,0.07,0.02,0.11,0.03c0.71,0.15,1.19,0.56,1.44,1.23
				c0.05,0.12,0.07,0.25,0.11,0.38c0,3.79,0,7.58,0,11.38c-0.01,0.03-0.02,0.07-0.03,0.1c-0.15,0.73-0.58,1.21-1.27,1.47
				c-0.11,0.04-0.23,0.06-0.35,0.09c-3.8,0-7.6,0-11.4,0c-0.03-0.01-0.06-0.02-0.09-0.03c-0.61-0.12-1.06-0.46-1.34-1
				C6.27,19.62,6.23,19.39,6.16,19.18z M17.9,12.38c0.01,0.03,0.01,0.06,0.02,0.09c0.16,0.53,0.19,1.07,0.14,1.61
				c-0.09,0.96-0.48,1.78-1.12,2.49c-0.52,0.57-1.15,0.98-1.88,1.23c-0.96,0.33-1.93,0.33-2.91,0.06c-0.55-0.15-1.04-0.42-1.48-0.78
				c-0.79-0.64-1.36-1.43-1.59-2.44c-0.14-0.61-0.15-1.21-0.03-1.83c0.03-0.14,0.06-0.28,0.1-0.43c-0.45,0-0.89,0-1.35,0
				c0,0.05,0,0.1,0,0.15c0,0.7,0,1.4,0,2.1c0,1.27,0,2.54,0,3.81c0,0.17,0.01,0.34,0.12,0.48c0.14,0.18,0.34,0.23,0.56,0.23
				c3.35,0,6.69,0,10.04,0c0.07,0,0.15,0,0.22-0.02c0.25-0.06,0.46-0.27,0.46-0.65c-0.01-2,0-3.99,0-5.99c0-0.04,0-0.08-0.01-0.12
				C18.74,12.38,18.32,12.38,17.9,12.38z M13.57,16.33c0.08-0.01,0.22-0.01,0.36-0.03c0.79-0.1,1.43-0.48,1.93-1.1
				c0.5-0.62,0.67-1.33,0.58-2.11c-0.07-0.63-0.36-1.17-0.81-1.61c-0.37-0.37-0.8-0.64-1.31-0.76c-0.92-0.22-1.78-0.11-2.56,0.46
				c-0.55,0.41-0.95,0.92-1.11,1.6c-0.22,0.96-0.03,1.83,0.64,2.57C11.89,16,12.63,16.33,13.57,16.33z M17.69,10.69L17.69,10.69
				c0.29,0,0.57,0.01,0.86-0.01c0.38-0.02,0.63-0.27,0.63-0.65c0.01-0.53,0.01-1.06,0-1.58c0-0.37-0.25-0.64-0.61-0.65
				C18,7.78,17.44,7.78,16.87,7.79c-0.45,0.02-0.68,0.28-0.68,0.74c0,0.47,0,0.95,0,1.42c0,0.48,0.25,0.74,0.74,0.74
				C17.19,10.69,17.44,10.69,17.69,10.69z"/>
		</g>
	</g>
</g>
</svg>
